<?xml version="1.0" encoding="utf-8"?>
<!-- Generator: Adobe Illustrator 16.0.0, SVG Export Plug-In . SVG Version: 6.00 Build 0)  -->
<!DOCTYPE svg PUBLIC "-//W3C//DTD SVG 1.1//EN" "http://www.w3.org/Graphics/SVG/1.1/DTD/svg11.dtd" [
	<!ENTITY ns_flows "http://ns.adobe.com/Flows/1.0/">
	<!ENTITY ns_extend "http://ns.adobe.com/Extensibility/1.0/">
	<!ENTITY ns_ai "http://ns.adobe.com/AdobeIllustrator/10.0/">
	<!ENTITY ns_graphs "http://ns.adobe.com/Graphs/1.0/">
]>
<svg version="1.1" xmlns:x="&ns_extend;" xmlns:i="&ns_ai;" xmlns:graph="&ns_graphs;"
	 xmlns="http://www.w3.org/2000/svg" xmlns:xlink="http://www.w3.org/1999/xlink" xmlns:a="http://ns.adobe.com/AdobeSVGViewerExtensions/3.0/"
	 x="0px" y="0px" width="97.506px" height="116.649px" viewBox="0 0 97.506 116.649" enable-background="new 0 0 97.506 116.649"
	 xml:space="preserve">
<g id="Background" display="none">
	<radialGradient id="SVGID_1_" cx="43.7495" cy="-200.167" r="541.4922" gradientUnits="userSpaceOnUse">
		<stop  offset="0" style="stop-color:#F8CB55"/>
		<stop  offset="0.3313" style="stop-color:#F8C853"/>
		<stop  offset="0.5365" style="stop-color:#F7C04D"/>
		<stop  offset="0.7073" style="stop-color:#F7B142"/>
		<stop  offset="0.8584" style="stop-color:#F59D33"/>
		<stop  offset="0.9967" style="stop-color:#F48320"/>
		<stop  offset="1" style="stop-color:#F4821F"/>
		<a:midPointStop  offset="0" style="stop-color:#F8CB55"/>
		<a:midPointStop  offset="0.7953" style="stop-color:#F8CB55"/>
		<a:midPointStop  offset="1" style="stop-color:#F4821F"/>
	</radialGradient>
	<rect x="-359.341" y="-550.76" display="inline" fill="url(#SVGID_1_)" width="800" height="800"/>
</g>
<g id="Object">
	<g>
		<g>
			<path fill="#FFFFFF" d="M-76.065,225.281v-0.27c-0.365,0.416-0.725,0.758-1.08,1.018c-0.354,0.264-0.738,0.463-1.152,0.598
				c-0.414,0.137-0.865,0.205-1.357,0.205c-0.649,0-1.252-0.139-1.805-0.414c-0.553-0.273-1.031-0.668-1.436-1.178
				c-0.405-0.512-0.712-1.109-0.92-1.799c-0.209-0.689-0.313-1.436-0.313-2.236c0-1.697,0.415-3.021,1.243-3.969
				s1.919-1.42,3.271-1.42c0.78,0,1.441,0.135,1.977,0.4c0.537,0.27,1.061,0.682,1.572,1.238v-4.008
				c0-0.555,0.109-0.977,0.334-1.262c0.221-0.285,0.537-0.426,0.947-0.426c0.412,0,0.729,0.131,0.951,0.393
				c0.221,0.262,0.332,0.645,0.332,1.156v11.973c0,0.516-0.119,0.904-0.357,1.162s-0.547,0.389-0.926,0.389
				c-0.369,0-0.676-0.135-0.92-0.404C-75.944,226.158-76.065,225.775-76.065,225.281z M-81.405,221.293
				c0,0.736,0.115,1.361,0.343,1.879c0.229,0.518,0.542,0.908,0.94,1.166c0.398,0.266,0.832,0.395,1.303,0.395
				c0.477,0,0.912-0.123,1.307-0.373c0.395-0.248,0.709-0.629,0.943-1.143c0.236-0.514,0.355-1.156,0.355-1.924
				c0-0.723-0.119-1.344-0.355-1.865c-0.234-0.52-0.551-0.916-0.953-1.193c-0.402-0.275-0.84-0.412-1.317-0.412
				c-0.497,0-0.94,0.143-1.332,0.424c-0.392,0.279-0.694,0.684-0.909,1.211C-81.297,219.986-81.405,220.598-81.405,221.293z"/>
			<path fill="#FFFFFF" d="M-64.096,221.98h-5.309c0.006,0.615,0.129,1.158,0.373,1.629c0.24,0.473,0.563,0.826,0.963,1.064
				c0.402,0.24,0.844,0.355,1.328,0.355c0.324,0,0.621-0.035,0.891-0.111c0.268-0.078,0.527-0.195,0.781-0.357
				c0.25-0.162,0.482-0.338,0.693-0.523c0.213-0.188,0.488-0.438,0.826-0.758c0.139-0.119,0.338-0.178,0.598-0.178
				c0.277,0,0.502,0.078,0.674,0.229c0.172,0.154,0.26,0.369,0.26,0.646c0,0.246-0.096,0.531-0.287,0.861
				c-0.195,0.326-0.484,0.643-0.871,0.945c-0.389,0.299-0.875,0.549-1.463,0.75c-0.586,0.197-1.26,0.299-2.021,0.299
				c-1.744,0-3.1-0.5-4.066-1.494c-0.969-0.992-1.451-2.342-1.451-4.045c0-0.803,0.117-1.547,0.357-2.232s0.588-1.273,1.043-1.766
				c0.457-0.488,1.021-0.865,1.691-1.127c0.668-0.262,1.412-0.391,2.227-0.391c1.061,0,1.971,0.221,2.729,0.67
				c0.76,0.445,1.328,1.023,1.705,1.732c0.377,0.711,0.566,1.434,0.566,2.168c0,0.684-0.195,1.125-0.584,1.33
				C-62.834,221.879-63.387,221.98-64.096,221.98z M-69.405,220.439h4.922c-0.066-0.93-0.318-1.625-0.752-2.084
				c-0.434-0.461-1.004-0.691-1.715-0.691c-0.676,0-1.232,0.232-1.666,0.701C-69.049,218.83-69.311,219.523-69.405,220.439z"/>
			<path fill="#FFFFFF" d="M-51.729,223.279c0,0.752-0.182,1.393-0.547,1.926c-0.363,0.533-0.902,0.939-1.615,1.213
				c-0.713,0.275-1.58,0.414-2.6,0.414c-0.975,0-1.811-0.15-2.506-0.449c-0.697-0.299-1.209-0.672-1.541-1.117
				c-0.33-0.449-0.496-0.896-0.496-1.348c0-0.299,0.104-0.555,0.318-0.766c0.211-0.211,0.48-0.318,0.805-0.318
				c0.285,0,0.502,0.07,0.656,0.209c0.152,0.141,0.297,0.336,0.438,0.586c0.277,0.484,0.611,0.846,0.998,1.084
				c0.389,0.238,0.916,0.357,1.588,0.357c0.543,0,0.988-0.121,1.336-0.361c0.348-0.244,0.521-0.52,0.521-0.832
				c0-0.477-0.18-0.824-0.541-1.043s-0.957-0.428-1.785-0.627c-0.934-0.232-1.695-0.475-2.281-0.73
				c-0.588-0.254-1.057-0.592-1.406-1.008c-0.352-0.42-0.529-0.934-0.529-1.541c0-0.545,0.162-1.059,0.488-1.543
				c0.324-0.482,0.805-0.869,1.438-1.156c0.633-0.291,1.396-0.436,2.291-0.436c0.703,0,1.334,0.074,1.893,0.221
				c0.561,0.145,1.029,0.342,1.402,0.588c0.375,0.244,0.66,0.516,0.855,0.814c0.195,0.297,0.293,0.59,0.293,0.875
				c0,0.311-0.105,0.566-0.313,0.766c-0.209,0.197-0.504,0.297-0.891,0.297c-0.277,0-0.516-0.078-0.709-0.238
				c-0.195-0.158-0.42-0.396-0.674-0.715c-0.203-0.266-0.445-0.479-0.725-0.637c-0.277-0.16-0.656-0.238-1.133-0.238
				c-0.49,0-0.896,0.104-1.223,0.314c-0.324,0.205-0.488,0.467-0.488,0.779c0,0.285,0.121,0.52,0.357,0.701
				c0.24,0.182,0.561,0.334,0.967,0.451c0.402,0.119,0.959,0.264,1.67,0.438c0.842,0.207,1.527,0.451,2.063,0.736
				c0.533,0.283,0.938,0.621,1.213,1.01C-51.866,222.342-51.729,222.783-51.729,223.279z"/>
			<path fill="#FFFFFF" d="M-48.956,214.533c-0.377,0-0.701-0.117-0.969-0.348c-0.27-0.232-0.404-0.561-0.404-0.986
				c0-0.385,0.139-0.699,0.412-0.949c0.277-0.25,0.596-0.373,0.961-0.373c0.352,0,0.662,0.113,0.934,0.338
				c0.271,0.227,0.408,0.555,0.408,0.984c0,0.418-0.133,0.746-0.398,0.98C-48.276,214.414-48.59,214.533-48.956,214.533z
				 M-47.614,217.336v7.844c0,0.543-0.129,0.957-0.387,1.234c-0.26,0.277-0.586,0.418-0.984,0.418c-0.4,0-0.723-0.143-0.971-0.428
				c-0.248-0.287-0.373-0.693-0.373-1.225v-7.764c0-0.537,0.125-0.941,0.373-1.215c0.248-0.27,0.57-0.408,0.971-0.408
				c0.398,0,0.725,0.139,0.984,0.408C-47.743,216.475-47.614,216.852-47.614,217.336z"/>
			<path fill="#FFFFFF" d="M-35.723,217.783v7.885c0,0.902-0.098,1.676-0.291,2.326c-0.189,0.65-0.498,1.186-0.924,1.611
				c-0.422,0.424-0.979,0.738-1.664,0.943s-1.539,0.309-2.561,0.309c-0.934,0-1.77-0.131-2.506-0.393
				c-0.734-0.262-1.301-0.602-1.699-1.016s-0.598-0.84-0.598-1.277c0-0.33,0.113-0.602,0.338-0.809
				c0.225-0.209,0.498-0.313,0.816-0.313c0.396,0,0.746,0.176,1.045,0.525c0.145,0.18,0.295,0.361,0.451,0.543
				s0.328,0.338,0.518,0.467c0.188,0.127,0.416,0.225,0.68,0.289c0.266,0.061,0.572,0.092,0.916,0.092
				c0.703,0,1.248-0.096,1.635-0.291c0.389-0.197,0.66-0.471,0.816-0.822c0.154-0.348,0.246-0.727,0.273-1.127
				c0.027-0.402,0.045-1.047,0.059-1.936c-0.418,0.586-0.898,1.029-1.447,1.334c-0.545,0.305-1.197,0.457-1.951,0.457
				c-0.91,0-1.703-0.23-2.383-0.695s-1.203-1.115-1.566-1.949c-0.363-0.836-0.545-1.799-0.545-2.893
				c0-0.816,0.109-1.553,0.332-2.207c0.223-0.658,0.539-1.211,0.949-1.66c0.41-0.453,0.885-0.791,1.422-1.021
				c0.537-0.227,1.125-0.34,1.77-0.34c0.77,0,1.436,0.146,1.998,0.439c0.564,0.297,1.088,0.76,1.572,1.389v-0.369
				c0-0.469,0.113-0.834,0.348-1.094c0.232-0.258,0.529-0.389,0.895-0.389c0.523,0,0.871,0.174,1.043,0.514
				C-35.811,216.648-35.723,217.141-35.723,217.783z M-43.588,221.225c0,1.098,0.24,1.932,0.721,2.494
				c0.48,0.564,1.104,0.846,1.865,0.846c0.449,0,0.875-0.121,1.275-0.363c0.402-0.242,0.729-0.607,0.98-1.094
				s0.379-1.078,0.379-1.773c0-1.107-0.244-1.969-0.73-2.584c-0.488-0.619-1.129-0.928-1.926-0.928
				c-0.775,0-1.396,0.297-1.863,0.887C-43.356,219.297-43.588,220.137-43.588,221.225z"/>
			<path fill="#FFFFFF" d="M-31.409,217.295v0.33c0.477-0.629,0.998-1.092,1.564-1.387c0.568-0.297,1.219-0.445,1.953-0.445
				c0.717,0,1.355,0.158,1.92,0.471c0.563,0.311,0.984,0.752,1.262,1.32c0.18,0.33,0.295,0.691,0.348,1.072
				c0.053,0.387,0.082,0.877,0.082,1.473v5.051c0,0.543-0.125,0.957-0.375,1.234c-0.248,0.277-0.57,0.418-0.969,0.418
				c-0.404,0-0.732-0.143-0.984-0.428c-0.252-0.287-0.377-0.693-0.377-1.225v-4.523c0-0.895-0.125-1.58-0.375-2.053
				c-0.248-0.475-0.742-0.711-1.484-0.711c-0.484,0-0.926,0.143-1.322,0.432c-0.398,0.291-0.691,0.686-0.875,1.189
				c-0.133,0.404-0.199,1.16-0.199,2.266v3.4c0,0.551-0.129,0.965-0.383,1.238c-0.256,0.275-0.586,0.414-0.988,0.414
				c-0.393,0-0.713-0.143-0.965-0.428c-0.252-0.287-0.379-0.693-0.379-1.225v-7.844c0-0.518,0.113-0.902,0.338-1.158
				s0.533-0.385,0.924-0.385c0.24,0,0.455,0.059,0.648,0.172c0.191,0.113,0.346,0.281,0.463,0.506
				C-31.467,216.697-31.409,216.971-31.409,217.295z"/>
			<path fill="#FFFFFF" d="M-14.897,221.98h-5.309c0.006,0.615,0.131,1.158,0.373,1.629c0.242,0.473,0.563,0.826,0.965,1.064
				c0.398,0.24,0.842,0.355,1.326,0.355c0.324,0,0.621-0.035,0.891-0.111c0.268-0.078,0.527-0.195,0.779-0.357
				s0.482-0.338,0.697-0.523c0.211-0.188,0.486-0.438,0.824-0.758c0.139-0.119,0.338-0.178,0.598-0.178
				c0.277,0,0.502,0.078,0.676,0.229c0.172,0.154,0.258,0.369,0.258,0.646c0,0.246-0.096,0.531-0.287,0.861
				c-0.193,0.326-0.484,0.643-0.871,0.945c-0.389,0.299-0.875,0.549-1.461,0.75c-0.588,0.197-1.262,0.299-2.023,0.299
				c-1.744,0-3.1-0.5-4.068-1.494c-0.965-0.992-1.449-2.342-1.449-4.045c0-0.803,0.117-1.547,0.357-2.232
				c0.238-0.686,0.586-1.273,1.045-1.766c0.455-0.488,1.02-0.865,1.688-1.127c0.67-0.262,1.414-0.391,2.229-0.391
				c1.061,0,1.969,0.221,2.729,0.67c0.76,0.445,1.328,1.023,1.705,1.732c0.377,0.711,0.568,1.434,0.568,2.168
				c0,0.684-0.197,1.125-0.588,1.33C-13.635,221.879-14.188,221.98-14.897,221.98z M-20.206,220.439h4.922
				c-0.066-0.93-0.316-1.625-0.75-2.084c-0.436-0.461-1.006-0.691-1.717-0.691c-0.676,0-1.232,0.232-1.666,0.701
				C-19.85,218.83-20.114,219.523-20.206,220.439z"/>
			<path fill="#FFFFFF" d="M-3.833,225.281v-0.27c-0.363,0.416-0.725,0.758-1.08,1.018c-0.354,0.264-0.738,0.463-1.152,0.598
				c-0.414,0.137-0.865,0.205-1.355,0.205c-0.65,0-1.252-0.139-1.807-0.414c-0.553-0.273-1.031-0.668-1.436-1.178
				c-0.404-0.512-0.711-1.109-0.92-1.799s-0.313-1.436-0.313-2.236c0-1.697,0.414-3.021,1.242-3.969s1.92-1.42,3.271-1.42
				c0.783,0,1.441,0.135,1.979,0.4c0.537,0.27,1.061,0.682,1.57,1.238v-4.008c0-0.555,0.111-0.977,0.332-1.262
				c0.223-0.285,0.541-0.426,0.951-0.426s0.727,0.131,0.949,0.393c0.221,0.262,0.334,0.645,0.334,1.156v11.973
				c0,0.516-0.119,0.904-0.359,1.162c-0.238,0.258-0.545,0.389-0.924,0.389c-0.371,0-0.678-0.135-0.92-0.404
				S-3.833,225.775-3.833,225.281z M-9.17,221.293c0,0.736,0.113,1.361,0.342,1.879s0.541,0.908,0.939,1.166
				c0.398,0.266,0.832,0.395,1.303,0.395c0.479,0,0.914-0.123,1.307-0.373c0.395-0.248,0.711-0.629,0.945-1.143
				c0.236-0.514,0.352-1.156,0.352-1.924c0-0.723-0.115-1.344-0.352-1.865c-0.234-0.52-0.553-0.916-0.953-1.193
				c-0.404-0.275-0.842-0.412-1.32-0.412c-0.496,0-0.939,0.143-1.33,0.424c-0.391,0.279-0.695,0.684-0.91,1.211
				C-9.065,219.986-9.17,220.598-9.17,221.293z"/>
			<path fill="#FFFFFF" d="M7.261,213.309v4.146c0.51-0.529,1.029-0.938,1.561-1.217c0.531-0.283,1.188-0.422,1.969-0.422
				c0.902,0,1.691,0.211,2.373,0.639c0.678,0.43,1.203,1.049,1.58,1.859c0.375,0.813,0.563,1.775,0.563,2.891
				c0,0.822-0.105,1.574-0.314,2.26s-0.512,1.281-0.91,1.785c-0.396,0.504-0.879,0.895-1.445,1.168
				c-0.568,0.275-1.193,0.414-1.875,0.414c-0.418,0-0.811-0.051-1.178-0.15c-0.369-0.1-0.682-0.229-0.941-0.393
				c-0.258-0.162-0.479-0.328-0.66-0.502c-0.182-0.172-0.424-0.432-0.721-0.775v0.27c0,0.51-0.123,0.896-0.369,1.156
				c-0.242,0.264-0.557,0.395-0.934,0.395c-0.385,0-0.691-0.131-0.92-0.395c-0.229-0.26-0.342-0.646-0.342-1.156v-11.854
				c0-0.549,0.111-0.967,0.33-1.246c0.225-0.283,0.535-0.422,0.932-0.422c0.418,0,0.74,0.133,0.965,0.4
				C7.148,212.43,7.261,212.811,7.261,213.309z M7.39,221.373c0,1.08,0.246,1.91,0.742,2.49c0.492,0.58,1.141,0.869,1.943,0.869
				c0.682,0,1.27-0.295,1.764-0.889c0.494-0.596,0.74-1.443,0.74-2.551c0-0.717-0.102-1.334-0.309-1.85
				c-0.205-0.516-0.496-0.918-0.873-1.197c-0.379-0.281-0.82-0.424-1.322-0.424c-0.518,0-0.979,0.143-1.383,0.424
				c-0.404,0.279-0.723,0.688-0.955,1.223C7.505,220,7.39,220.637,7.39,221.373z"/>
			<path fill="#FFFFFF" d="M18.824,227.17l0.248-0.609l-3.34-8.41c-0.205-0.482-0.311-0.834-0.311-1.053
				c0-0.234,0.063-0.447,0.182-0.646s0.281-0.357,0.49-0.477c0.211-0.121,0.428-0.182,0.652-0.182c0.391,0,0.686,0.127,0.885,0.375
				c0.201,0.248,0.375,0.604,0.527,1.068l2.297,6.682l2.176-6.215c0.172-0.502,0.328-0.896,0.469-1.182
				c0.139-0.287,0.287-0.48,0.441-0.578c0.156-0.098,0.377-0.15,0.662-0.15c0.207,0,0.402,0.055,0.592,0.166
				c0.188,0.109,0.334,0.258,0.438,0.443c0.102,0.186,0.154,0.381,0.154,0.584c-0.027,0.127-0.07,0.305-0.131,0.539
				c-0.059,0.23-0.131,0.467-0.219,0.705l-3.539,9.268c-0.305,0.814-0.602,1.453-0.895,1.918c-0.293,0.463-0.676,0.822-1.158,1.068
				c-0.482,0.25-1.129,0.373-1.943,0.373c-0.795,0-1.393-0.086-1.789-0.258c-0.398-0.174-0.598-0.488-0.598-0.945
				c0-0.311,0.096-0.553,0.285-0.721c0.188-0.168,0.469-0.256,0.838-0.256c0.146,0,0.289,0.021,0.428,0.063
				c0.174,0.039,0.322,0.061,0.447,0.061c0.311,0,0.557-0.047,0.736-0.143c0.18-0.092,0.34-0.25,0.482-0.482
				C18.474,227.949,18.638,227.611,18.824,227.17z"/>
		</g>
		<g>
			<path fill="#FFFFFF" d="M58.143,216.029h0.646v-0.814c0-0.852,0.104-1.525,0.32-2.029c0.215-0.5,0.582-0.863,1.096-1.092
				c0.516-0.229,1.219-0.344,2.111-0.344c1.592,0,2.379,0.387,2.379,1.168c0,0.25-0.082,0.465-0.25,0.645
				c-0.16,0.176-0.359,0.268-0.584,0.268c-0.104,0-0.293-0.021-0.553-0.064c-0.25-0.033-0.475-0.057-0.652-0.057
				c-0.488,0-0.803,0.148-0.945,0.436c-0.137,0.287-0.205,0.699-0.205,1.24v0.645h0.662c1.037,0,1.549,0.311,1.549,0.938
				c0,0.439-0.133,0.723-0.41,0.842c-0.273,0.121-0.654,0.18-1.139,0.18h-0.662v7.191c0,0.535-0.127,0.943-0.389,1.225
				c-0.252,0.285-0.578,0.426-0.986,0.426c-0.383,0-0.703-0.141-0.961-0.426c-0.254-0.281-0.381-0.689-0.381-1.225v-7.191h-0.748
				c-0.406,0-0.715-0.088-0.936-0.273c-0.219-0.18-0.328-0.42-0.328-0.709C56.778,216.352,57.233,216.029,58.143,216.029"/>
			<path fill="#FFFFFF" d="M67.028,222.912v2.268c0,0.549-0.139,0.963-0.391,1.236c-0.258,0.277-0.584,0.414-0.98,0.414
				c-0.4,0-0.721-0.139-0.971-0.42c-0.248-0.277-0.377-0.688-0.377-1.23v-7.559c0-1.221,0.439-1.832,1.318-1.832
				c0.455,0,0.779,0.143,0.979,0.428s0.309,0.705,0.332,1.266c0.32-0.561,0.652-0.98,0.992-1.266
				c0.35-0.285,0.799-0.428,1.371-0.428c0.574,0,1.123,0.143,1.66,0.428c0.539,0.285,0.807,0.666,0.807,1.137
				c0,0.328-0.115,0.605-0.34,0.816c-0.23,0.219-0.477,0.326-0.74,0.326c-0.104,0-0.346-0.066-0.727-0.189
				c-0.381-0.117-0.719-0.18-1.008-0.18c-0.396,0-0.723,0.107-0.975,0.311c-0.254,0.215-0.449,0.521-0.59,0.93
				c-0.137,0.414-0.23,0.906-0.285,1.469C67.053,221.404,67.028,222.098,67.028,222.912"/>
			<path fill="#FFFFFF" d="M79.508,221.977h-5.313c0.01,0.617,0.129,1.162,0.373,1.633c0.244,0.465,0.564,0.822,0.967,1.063
				s0.84,0.355,1.326,0.355c0.328,0,0.621-0.033,0.891-0.115c0.266-0.072,0.529-0.193,0.779-0.355
				c0.254-0.162,0.482-0.334,0.697-0.523c0.211-0.186,0.488-0.438,0.826-0.754c0.139-0.119,0.34-0.182,0.594-0.182
				c0.281,0,0.506,0.078,0.68,0.23c0.176,0.154,0.254,0.369,0.254,0.646c0,0.248-0.092,0.531-0.279,0.859
				c-0.197,0.33-0.484,0.645-0.873,0.949c-0.393,0.297-0.879,0.551-1.465,0.746c-0.584,0.199-1.26,0.301-2.021,0.301
				c-1.748,0-3.104-0.496-4.068-1.49c-0.967-0.996-1.455-2.346-1.455-4.049c0-0.803,0.119-1.549,0.361-2.234
				c0.234-0.689,0.584-1.273,1.047-1.766c0.455-0.494,1.016-0.869,1.686-1.131c0.67-0.26,1.412-0.391,2.23-0.391
				c1.057,0,1.967,0.223,2.727,0.676c0.758,0.443,1.334,1.021,1.705,1.73c0.381,0.715,0.568,1.434,0.568,2.172
				c0,0.68-0.199,1.121-0.59,1.326C80.766,221.875,80.217,221.977,79.508,221.977 M74.196,220.434h4.922
				c-0.066-0.926-0.313-1.623-0.748-2.078c-0.438-0.465-1.004-0.691-1.717-0.691c-0.676,0-1.232,0.229-1.666,0.699
				C74.551,218.83,74.286,219.52,74.196,220.434"/>
			<path fill="#FFFFFF" d="M90.799,221.977h-5.309c0.004,0.617,0.131,1.162,0.369,1.633c0.242,0.465,0.564,0.822,0.965,1.063
				c0.402,0.24,0.842,0.355,1.33,0.355c0.322,0,0.621-0.033,0.885-0.115c0.271-0.072,0.529-0.193,0.785-0.355
				c0.254-0.162,0.48-0.334,0.695-0.523c0.207-0.186,0.484-0.438,0.824-0.754c0.143-0.119,0.34-0.182,0.596-0.182
				c0.281,0,0.506,0.078,0.682,0.23c0.172,0.154,0.248,0.369,0.248,0.646c0,0.248-0.09,0.531-0.283,0.859
				c-0.186,0.33-0.479,0.645-0.871,0.949c-0.387,0.297-0.879,0.551-1.459,0.746c-0.582,0.199-1.264,0.301-2.025,0.301
				c-1.744,0-3.098-0.496-4.07-1.49c-0.965-0.996-1.453-2.346-1.453-4.049c0-0.803,0.123-1.549,0.365-2.234
				c0.236-0.689,0.586-1.273,1.043-1.766c0.455-0.494,1.018-0.869,1.689-1.131c0.666-0.26,1.412-0.391,2.229-0.391
				c1.055,0,1.967,0.223,2.736,0.676c0.752,0.443,1.324,1.021,1.695,1.73c0.377,0.715,0.57,1.434,0.57,2.172
				c0,0.68-0.199,1.121-0.588,1.326C92.055,221.875,91.506,221.977,90.799,221.977 M85.491,220.434h4.918
				c-0.064-0.926-0.316-1.623-0.748-2.078c-0.439-0.465-1.006-0.691-1.719-0.691c-0.676,0-1.232,0.229-1.666,0.699
				C85.844,218.83,85.579,219.52,85.491,220.434"/>
			<path fill="#FFFFFF" d="M96.745,217.316v0.324c0.51-0.627,1.041-1.09,1.596-1.387c0.543-0.295,1.17-0.445,1.865-0.445
				c0.832,0,1.607,0.217,2.311,0.646c0.705,0.434,1.254,1.064,1.662,1.891c0.41,0.832,0.615,1.811,0.615,2.945
				c0,0.834-0.117,1.604-0.354,2.303c-0.232,0.701-0.561,1.285-0.971,1.76c-0.41,0.473-0.895,0.84-1.453,1.096
				c-0.568,0.252-1.166,0.381-1.811,0.381c-0.771,0-1.426-0.156-1.951-0.469c-0.525-0.307-1.029-0.77-1.51-1.367v4.074
				c0,1.189-0.436,1.791-1.301,1.791c-0.514,0-0.848-0.154-1.018-0.461c-0.158-0.313-0.246-0.758-0.246-1.352V217.33
				c0-0.52,0.111-0.9,0.336-1.158c0.225-0.252,0.537-0.383,0.928-0.383c0.385,0,0.695,0.131,0.938,0.393
				C96.627,216.447,96.745,216.818,96.745,217.316 M102.067,221.26c0-0.715-0.111-1.332-0.328-1.844
				c-0.219-0.516-0.523-0.91-0.908-1.182c-0.385-0.275-0.818-0.416-1.291-0.416c-0.746,0-1.379,0.299-1.893,0.885
				c-0.516,0.594-0.773,1.461-0.773,2.609c0,1.074,0.256,1.918,0.77,2.52c0.51,0.6,1.137,0.896,1.896,0.896
				c0.449,0,0.871-0.131,1.256-0.387c0.389-0.268,0.695-0.658,0.924-1.182C101.95,222.637,102.067,222.002,102.067,221.26"/>
			<path fill="#FFFFFF" d="M107.526,214.525c-0.379,0-0.699-0.119-0.965-0.35c-0.271-0.232-0.404-0.559-0.404-0.982
				c0-0.383,0.135-0.701,0.412-0.951c0.275-0.246,0.594-0.373,0.957-0.373c0.355,0,0.666,0.113,0.936,0.336
				c0.273,0.229,0.41,0.559,0.41,0.988c0,0.42-0.133,0.746-0.395,0.98C108.209,214.406,107.895,214.525,107.526,214.525
				 M108.872,217.33v7.854c0,0.539-0.129,0.949-0.387,1.227c-0.262,0.281-0.59,0.42-0.986,0.42c-0.4,0-0.717-0.141-0.973-0.426
				c-0.244-0.291-0.369-0.697-0.369-1.221v-7.775c0-0.533,0.125-0.936,0.369-1.209c0.256-0.277,0.572-0.41,0.973-0.41
				c0.396,0,0.725,0.133,0.986,0.41C108.743,216.473,108.872,216.85,108.872,217.33"/>
			<path fill="#FFFFFF" d="M117.622,225.59l-2.391-3.943l-1.475,1.393v2.16c0,0.523-0.139,0.924-0.416,1.205
				c-0.268,0.285-0.59,0.426-0.949,0.426c-0.416,0-0.748-0.139-0.982-0.42c-0.238-0.277-0.359-0.688-0.359-1.23V213.6
				c0-0.6,0.117-1.057,0.344-1.375c0.236-0.318,0.57-0.475,0.998-0.475c0.42,0,0.746,0.145,0.996,0.432
				c0.244,0.283,0.369,0.705,0.369,1.258v6.588l3.051-3.207c0.381-0.391,0.662-0.668,0.867-0.813
				c0.199-0.145,0.439-0.219,0.723-0.219c0.342,0,0.621,0.107,0.852,0.324c0.223,0.215,0.336,0.486,0.336,0.809
				c0,0.396-0.369,0.932-1.105,1.592l-1.439,1.322l2.785,4.379c0.201,0.328,0.354,0.57,0.441,0.738
				c0.088,0.166,0.139,0.334,0.139,0.484c0,0.432-0.121,0.768-0.359,1.021c-0.234,0.248-0.547,0.371-0.928,0.371
				c-0.33,0-0.588-0.088-0.766-0.27C118.172,226.379,117.924,226.055,117.622,225.59"/>
			<path fill="#FFFFFF" d="M123.52,226.83c-0.408,0-0.76-0.133-1.063-0.4c-0.295-0.262-0.447-0.633-0.447-1.115
				c0-0.402,0.145-0.75,0.43-1.041c0.287-0.293,0.637-0.438,1.055-0.438c0.416,0,0.77,0.145,1.07,0.432
				c0.291,0.289,0.441,0.641,0.441,1.047c0,0.475-0.15,0.848-0.441,1.109C124.264,226.697,123.917,226.83,123.52,226.83"/>
			<path fill="#FFFFFF" d="M137.022,223.469c0,0.334-0.102,0.699-0.305,1.082c-0.201,0.387-0.512,0.752-0.926,1.1
				c-0.414,0.346-0.934,0.631-1.564,0.842s-1.342,0.32-2.127,0.32c-1.682,0-2.992-0.492-3.934-1.467
				c-0.936-0.98-1.408-2.293-1.408-3.938c0-1.115,0.215-2.1,0.648-2.955c0.426-0.854,1.051-1.516,1.865-1.98
				c0.814-0.471,1.797-0.703,2.924-0.703c0.705,0,1.348,0.104,1.939,0.309c0.586,0.205,1.08,0.473,1.492,0.795
				c0.404,0.33,0.717,0.674,0.93,1.037c0.217,0.369,0.322,0.715,0.322,1.035s-0.119,0.598-0.359,0.824
				c-0.246,0.225-0.539,0.338-0.877,0.338c-0.23,0-0.416-0.059-0.566-0.172c-0.15-0.119-0.318-0.305-0.502-0.568
				c-0.332-0.502-0.676-0.881-1.041-1.129c-0.359-0.256-0.818-0.381-1.375-0.381c-0.799,0-1.451,0.313-1.941,0.941
				c-0.49,0.623-0.736,1.486-0.736,2.566c0,0.514,0.066,0.984,0.193,1.412c0.121,0.428,0.305,0.791,0.543,1.094
				c0.242,0.301,0.527,0.527,0.865,0.686c0.34,0.158,0.711,0.234,1.113,0.234c0.545,0,1.01-0.125,1.4-0.377
				c0.391-0.254,0.734-0.635,1.031-1.154c0.166-0.305,0.342-0.543,0.531-0.717c0.193-0.168,0.43-0.26,0.709-0.26
				c0.33,0,0.605,0.131,0.822,0.381C136.911,222.914,137.022,223.186,137.022,223.469"/>
			<path fill="#FFFFFF" d="M148.737,221.313c0,0.803-0.129,1.553-0.373,2.236c-0.26,0.686-0.619,1.27-1.1,1.76
				c-0.477,0.49-1.049,0.867-1.707,1.129c-0.668,0.26-1.412,0.395-2.238,0.395c-0.822,0-1.564-0.135-2.221-0.402
				c-0.652-0.262-1.225-0.643-1.703-1.133c-0.48-0.498-0.846-1.082-1.1-1.756c-0.238-0.672-0.367-1.416-0.367-2.229
				c0-0.824,0.131-1.578,0.375-2.26c0.254-0.686,0.615-1.27,1.088-1.752c0.473-0.484,1.039-0.855,1.707-1.119
				c0.674-0.262,1.414-0.393,2.221-0.393c0.822,0,1.568,0.131,2.238,0.4c0.67,0.262,1.24,0.643,1.721,1.129
				c0.48,0.496,0.84,1.078,1.09,1.75C148.61,219.75,148.737,220.494,148.737,221.313 M146.012,221.313
				c0-1.109-0.246-1.971-0.73-2.586c-0.486-0.623-1.141-0.928-1.963-0.928c-0.531,0-1,0.137-1.406,0.412
				c-0.406,0.271-0.711,0.68-0.932,1.217c-0.219,0.539-0.33,1.166-0.33,1.885c0,0.711,0.109,1.326,0.324,1.855
				c0.217,0.535,0.527,0.939,0.928,1.221c0.404,0.279,0.875,0.422,1.416,0.422c0.822,0,1.477-0.309,1.963-0.932
				C145.766,223.26,146.012,222.402,146.012,221.313"/>
			<path fill="#FFFFFF" d="M159.092,221.512v3.607c0,0.57-0.127,0.994-0.389,1.285c-0.262,0.285-0.598,0.428-1.021,0.428
				c-0.412,0-0.75-0.143-0.996-0.428c-0.26-0.291-0.391-0.715-0.391-1.285v-4.326c0-0.682-0.021-1.215-0.064-1.594
				c-0.049-0.371-0.178-0.688-0.379-0.924c-0.207-0.248-0.533-0.369-0.977-0.369c-0.891,0-1.471,0.305-1.756,0.922
				c-0.277,0.604-0.424,1.48-0.424,2.623v3.668c0,0.563-0.127,0.99-0.377,1.281c-0.262,0.285-0.596,0.432-1.012,0.432
				c-0.414,0-0.75-0.146-1.012-0.432c-0.262-0.291-0.393-0.719-0.393-1.281v-7.766c0-0.514,0.115-0.902,0.352-1.164
				c0.238-0.27,0.549-0.4,0.93-0.4c0.373,0,0.682,0.129,0.934,0.371c0.246,0.252,0.371,0.594,0.371,1.031v0.258
				c0.475-0.561,0.977-0.975,1.51-1.236c0.543-0.273,1.133-0.404,1.795-0.404c0.682,0,1.268,0.137,1.756,0.408
				c0.492,0.273,0.893,0.686,1.215,1.232c0.459-0.555,0.951-0.967,1.475-1.236c0.525-0.27,1.105-0.404,1.74-0.404
				c0.74,0,1.385,0.15,1.92,0.439c0.535,0.291,0.936,0.711,1.201,1.25c0.23,0.494,0.346,1.268,0.346,2.322v5.299
				c0,0.57-0.127,0.994-0.385,1.285c-0.258,0.285-0.602,0.428-1.023,0.428c-0.414,0-0.748-0.146-1.012-0.432
				c-0.262-0.291-0.393-0.719-0.393-1.281v-4.566c0-0.586-0.023-1.049-0.074-1.4c-0.049-0.354-0.184-0.648-0.398-0.885
				c-0.223-0.24-0.557-0.361-0.998-0.361c-0.357,0-0.695,0.111-1.02,0.322c-0.32,0.207-0.572,0.498-0.754,0.85
				C159.194,219.539,159.092,220.348,159.092,221.512"/>
		</g>
		<g>
			<path fill="#FFFFFF" d="M32.742,220.654c-0.002-0.006-0.002-0.01-0.002-0.02C32.74,220.645,32.74,220.648,32.742,220.654z"/>
			<path fill="#FFFFFF" d="M32.878,221.521c0.002,0,0.002,0,0.002,0c-0.051-0.248-0.092-0.492-0.123-0.734
				C32.789,221.031,32.83,221.277,32.878,221.521z"/>
			<path fill="#FFFFFF" d="M33.775,224.041c-0.006-0.01-0.01-0.023-0.016-0.035C33.765,224.018,33.769,224.031,33.775,224.041z"/>
			<path fill="#FFFFFF" d="M33.691,223.873c-0.023-0.045-0.047-0.094-0.068-0.139C33.644,223.783,33.667,223.828,33.691,223.873z"/>
			<path fill="#FFFFFF" d="M33.13,222.492c0.133,0.42,0.293,0.826,0.479,1.213c-0.189-0.396-0.346-0.805-0.475-1.213
				C33.132,222.492,33.132,222.492,33.13,222.492z"/>
			<path fill="#FFFFFF" d="M43.248,210.252c0.525,0,0.912,0.043,1.355,0.117l0.125-0.797c0,0-1.225-0.379-2.836-0.246l-0.127-0.436
				c0.502-0.104,0.877-0.549,0.877-1.082c0-0.609-0.496-1.104-1.105-1.104c-0.611,0-1.105,0.494-1.105,1.104
				c0,0.533,0.375,0.979,0.875,1.082l0.141,0.484c-1.711,0.234-3.072,0.904-3.072,0.904l0.24,0.738
				c1.035-0.346,1.932-0.555,2.746-0.643C42.158,210.289,42.759,210.252,43.248,210.252z"/>
			<path fill="#FFFFFF" d="M33.755,214.293l0.006-0.01c0.041-0.051,0.08-0.102,0.119-0.148l-0.328-0.236l-0.51-0.373
				c-0.029,0.039-0.832,0.779-1.467,2.145c-0.025-0.043-0.059-0.086-0.094-0.127c-0.189-0.207-0.455-0.313-0.795-0.307
				c-0.004,0-0.008,0-0.016,0c-0.207,0-0.352-0.07-0.445-0.154c0.092-0.119,0.15-0.27,0.15-0.432c0-0.387-0.316-0.701-0.701-0.701
				c-0.387,0-0.699,0.314-0.699,0.701s0.313,0.699,0.699,0.699c0.061,0,0.117-0.01,0.174-0.021c0.174,0.189,0.445,0.359,0.846,0.35
				c0.207-0.002,0.357,0.051,0.459,0.162c0.115,0.127,0.154,0.311,0.166,0.447c-0.002,0.002-0.002,0.006-0.004,0.006
				c-0.455,1.246-0.324,2.795-0.324,2.795l1.105,0.043c0.023-0.563,0.105-1.551,0.389-2.334
				C33.039,215.279,33.728,214.33,33.755,214.293z"/>
			<path fill="#FFFFFF" d="M52.878,211.178c-0.387,0-0.703,0.313-0.703,0.699c0,0.061,0.01,0.117,0.025,0.174
				c-0.191,0.174-0.357,0.449-0.352,0.85c0.002,0.205-0.051,0.355-0.162,0.455c-0.09,0.08-0.199,0.121-0.309,0.148
				c-0.824-1.154-1.84-1.859-1.84-1.859l-0.793,0.854c0.602,0.543,1.213,1.229,1.809,2.082c0.412,0.59,0.838,1.352,1.189,2.107
				l1.072-0.508c0,0-0.49-1.209-1.18-2.295c0.121-0.041,0.242-0.105,0.348-0.199c0.211-0.189,0.313-0.457,0.307-0.793
				c-0.002-0.219,0.07-0.367,0.156-0.463c0.117,0.09,0.268,0.148,0.432,0.148c0.386,0,0.7-0.314,0.7-0.701
				S53.264,211.178,52.878,211.178z"/>
			<path fill="#FFFFFF" d="M50.097,220.811c-1.477,0.719-3.902,1.668-7.1,2.115c-1.254,0.172-2.471,0.236-3.59,0.236
				c-1.455,0-2.74-0.107-3.729-0.232c-1.127-0.143-2.006-0.316-2.545-0.438c0.129,0.408,0.285,0.816,0.475,1.213
				c0.004,0.01,0.008,0.021,0.014,0.029c0.021,0.045,0.045,0.094,0.068,0.139c0.021,0.047,0.045,0.092,0.068,0.133
				c0.006,0.012,0.01,0.025,0.016,0.035c0.318,0.596,0.699,1.146,1.133,1.621c1.508,1.65,3.043,1.908,3.057,1.912l0.025,0.004
				l0.021,0.008c0.014,0.004,1.375,0.443,3.445,0.443c2.037,0,4.033-0.412,5.939-1.221c1.41-0.721,2.744-1.818,3.406-2.795
				c0.512-0.756,0.881-1.564,1.1-2.4c0.115-0.447,0.207-1.16,0.154-1.912C51.64,219.98,50.984,220.379,50.097,220.811z"/>
			<path fill="#FFFFFF" d="M34.23,214.641c-0.043,0.063-0.684,0.969-1.188,2.359c-0.379,1.043-0.363,2.559-0.363,2.576v0.002
				c0,0.355,0.02,0.709,0.061,1.057c0,0.01,0,0.014,0.002,0.02c0.004,0.045,0.012,0.088,0.016,0.133
				c0.031,0.242,0.072,0.486,0.123,0.734c0.734,0.188,5.107,1.207,9.994,0.525c3.066-0.426,5.391-1.33,6.803-2.016
				c1.174-0.57,1.928-1.086,2.221-1.297c-0.289-1.076-1.09-2.764-1.822-3.816c-2.102-3-4.365-3.77-5.527-3.961
				c-0.443-0.072-0.797-0.113-1.301-0.113c-0.469,0-1.049,0.035-1.824,0.117c-0.777,0.082-1.645,0.287-2.65,0.625
				c-1.412,0.471-2.688,1.213-3.693,2.145l-0.033,0.031C34.898,213.898,34.587,214.188,34.23,214.641z M47.074,213.943
				c1.006,0,1.824,0.816,1.824,1.824s-0.818,1.826-1.824,1.826s-1.824-0.818-1.824-1.826S46.068,213.943,47.074,213.943z
				 M38.445,213.871c1.631,0,2.949,1.32,2.949,2.947c0,1.631-1.318,2.947-2.949,2.947c-1.627,0-2.947-1.316-2.947-2.947
				C35.498,215.191,36.818,213.871,38.445,213.871z"/>
		</g>
	</g>
	<g>
		<path opacity="0.2" fill="#FFFFFF" d="M-159.263,120.033c-1.306,0-2.561,0.211-3.739,0.593c-3.585-4.957-9.414-8.185-15.999-8.185
			c-2.188,0-4.292,0.362-6.259,1.02c-5.681-7.534-14.704-12.406-24.866-12.406c-9.49,0-17.983,4.252-23.692,10.95
			c-1.839-0.697-3.832-1.081-5.915-1.081c-9.224,0-16.701,7.477-16.701,16.701c0,9.224,7.478,16.701,16.701,16.701
			c0.312,0,0.622-0.011,0.93-0.027c4.726,11.169,15.786,19.006,28.677,19.006c10.163,0,19.186-4.872,24.866-12.406
			c1.967,0.657,4.07,1.019,6.259,1.019c6.585,0,12.413-3.228,15.999-8.184c1.179,0.381,2.434,0.593,3.739,0.593
			c6.708,0,12.146-5.438,12.146-12.146S-152.554,120.033-159.263,120.033z"/>
		<path opacity="0.2" fill="#FFFFFF" d="M-202.812-449.479c-1.306,0-2.561,0.211-3.739,0.593c-3.586-4.957-9.414-8.184-15.999-8.184
			c-2.188,0-4.292,0.361-6.259,1.019c-5.681-7.534-14.704-12.406-24.866-12.406c-9.491,0-17.983,4.252-23.692,10.95
			c-1.839-0.697-3.832-1.082-5.915-1.082c-9.224,0-16.701,7.478-16.701,16.701c0,9.224,7.478,16.702,16.701,16.702
			c0.312,0,0.622-0.01,0.929-0.027c4.726,11.169,15.787,19.006,28.678,19.006c10.163,0,19.186-4.872,24.866-12.406
			c1.967,0.658,4.07,1.019,6.259,1.019c6.585,0,12.413-3.228,15.999-8.184c1.178,0.381,2.434,0.593,3.739,0.593
			c6.708,0,12.146-5.438,12.146-12.146C-190.666-444.042-196.104-449.479-202.812-449.479z"/>
		<path opacity="0.2" fill="#FFFFFF" d="M394.723-166.006c-0.636,0-1.247,0.103-1.821,0.289c-1.746-2.414-4.584-3.986-7.791-3.986
			c-1.065,0-2.09,0.176-3.048,0.497c-2.767-3.669-7.161-6.042-12.11-6.042c-4.622,0-8.758,2.071-11.538,5.333
			c-0.896-0.34-1.866-0.527-2.881-0.527c-4.492,0-8.134,3.642-8.134,8.134c0,4.492,3.642,8.133,8.134,8.133
			c0.152,0,0.303-0.005,0.453-0.013c2.301,5.439,7.688,9.256,13.966,9.256c4.949,0,9.344-2.372,12.11-6.042
			c0.958,0.32,1.982,0.497,3.048,0.497c3.207,0,6.045-1.572,7.791-3.986c0.574,0.186,1.186,0.289,1.821,0.289
			c3.268,0,5.916-2.648,5.916-5.915C400.639-163.357,397.991-166.006,394.723-166.006z"/>
		<path opacity="0.2" fill="#FFFFFF" d="M202.444,158.676c0.505,0,0.99-0.081,1.446-0.229c1.387,1.917,3.641,3.165,6.188,3.165
			c0.847,0,1.66-0.14,2.421-0.394c2.197,2.913,5.688,4.798,9.617,4.798c3.671,0,6.956-1.645,9.164-4.235
			c0.711,0.27,1.481,0.418,2.287,0.418c3.568,0,6.46-2.892,6.46-6.459s-2.892-6.46-6.46-6.46c-0.12,0-0.24,0.004-0.359,0.011
			c-1.828-4.32-6.105-7.351-11.092-7.351c-3.93,0-7.42,1.884-9.617,4.798c-0.761-0.254-1.574-0.395-2.421-0.395
			c-2.547,0-4.801,1.249-6.188,3.166c-0.456-0.147-0.941-0.229-1.446-0.229c-2.595,0-4.698,2.104-4.698,4.698
			S199.849,158.676,202.444,158.676z"/>
		<path opacity="0.2" fill="#FFFFFF" d="M-100.235-165.523c-0.647,0-1.269,0.105-1.853,0.293c-1.777-2.456-4.664-4.055-7.926-4.055
			c-1.084,0-2.126,0.179-3.101,0.505c-2.814-3.732-7.285-6.146-12.319-6.146c-4.702,0-8.909,2.107-11.738,5.425
			c-0.911-0.345-1.898-0.536-2.93-0.536c-4.57,0-8.274,3.705-8.274,8.274s3.705,8.274,8.274,8.274c0.154,0,0.308-0.005,0.46-0.013
			c2.341,5.533,7.821,9.416,14.208,9.416c5.035,0,9.505-2.414,12.319-6.146c0.975,0.326,2.017,0.505,3.101,0.505
			c3.262,0,6.149-1.599,7.926-4.055c0.584,0.189,1.206,0.293,1.853,0.293c3.323,0,6.018-2.694,6.018-6.018
			C-94.217-162.829-96.912-165.523-100.235-165.523z"/>
		<path opacity="0.2" fill="#FFFFFF" d="M267.504-436.489c-0.646,0-1.269,0.105-1.853,0.294c-1.776-2.456-4.663-4.055-7.926-4.055
			c-1.084,0-2.126,0.179-3.101,0.505c-2.814-3.733-7.285-6.146-12.319-6.146c-4.702,0-8.909,2.107-11.738,5.425
			c-0.911-0.345-1.898-0.536-2.931-0.536c-4.569,0-8.273,3.705-8.273,8.274s3.704,8.274,8.273,8.274
			c0.155,0,0.309-0.005,0.461-0.014c2.342,5.534,7.821,9.416,14.208,9.416c5.034,0,9.505-2.414,12.319-6.146
			c0.975,0.326,2.017,0.505,3.101,0.505c3.263,0,6.149-1.599,7.926-4.055c0.584,0.189,1.206,0.294,1.853,0.294
			c3.324,0,6.018-2.694,6.018-6.018C273.522-433.795,270.829-436.489,267.504-436.489z"/>
		<path opacity="0.2" fill="#FFFFFF" d="M335.768,110.05c-1.234,0-2.421,0.2-3.535,0.561c-3.391-4.687-8.901-7.739-15.128-7.739
			c-2.07,0-4.059,0.342-5.919,0.964c-5.371-7.124-13.903-11.731-23.513-11.731c-8.975,0-17.005,4.021-22.403,10.354
			c-1.738-0.659-3.623-1.022-5.593-1.022c-8.722,0-15.792,7.07-15.792,15.793c0,8.722,7.07,15.792,15.792,15.792
			c0.295,0,0.588-0.01,0.879-0.025c4.469,10.562,14.928,17.972,27.117,17.972c9.609,0,18.142-4.607,23.513-11.731
			c1.86,0.622,3.849,0.964,5.919,0.964c6.227,0,11.737-3.053,15.128-7.739c1.114,0.36,2.301,0.561,3.535,0.561
			c6.344,0,11.486-5.143,11.486-11.485C347.254,115.191,342.112,110.05,335.768,110.05z"/>
		<path opacity="0.2" fill="#FFFFFF" d="M-130.495,104.19c0.793,0,1.555-0.128,2.271-0.36c2.178,3.012,5.718,4.972,9.718,4.972
			c1.33,0,2.607-0.22,3.802-0.619c3.451,4.577,8.932,7.537,15.105,7.537c5.765,0,10.924-2.584,14.392-6.652
			c1.117,0.423,2.328,0.657,3.593,0.657c5.603,0,10.146-4.543,10.146-10.146c0-5.604-4.542-10.146-10.146-10.146
			c-0.189,0-0.377,0.006-0.564,0.017c-2.871-6.785-9.59-11.545-17.42-11.545c-6.173,0-11.654,2.959-15.105,7.536
			c-1.195-0.399-2.473-0.619-3.802-0.619c-4,0-7.54,1.961-9.718,4.972c-0.716-0.231-1.479-0.36-2.271-0.36
			c-4.075,0-7.379,3.304-7.379,7.379C-137.874,100.887-134.57,104.19-130.495,104.19z"/>
		<path opacity="0.2" fill="#FFFFFF" d="M112.258-316.962c0.585,0,1.147-0.095,1.675-0.266c1.606,2.22,4.217,3.666,7.166,3.666
			c0.98,0,1.922-0.162,2.804-0.457c2.544,3.375,6.585,5.557,11.138,5.557c4.25,0,8.054-1.905,10.611-4.905
			c0.823,0.312,1.716,0.484,2.649,0.484c4.131,0,7.48-3.349,7.48-7.48s-3.35-7.48-7.48-7.48c-0.141,0-0.279,0.005-0.417,0.012
			c-2.116-5.002-7.07-8.513-12.844-8.513c-4.553,0-8.594,2.183-11.138,5.557c-0.882-0.294-1.823-0.457-2.804-0.457
			c-2.949,0-5.56,1.446-7.165,3.666c-0.528-0.171-1.091-0.266-1.676-0.266c-3.004,0-5.439,2.436-5.439,5.44
			C106.819-319.398,109.254-316.962,112.258-316.962z"/>
		<path opacity="0.2" fill="#FFFFFF" d="M115.162-31.827c0.741,0,1.453-0.12,2.122-0.336c2.034,2.812,5.341,4.644,9.077,4.644
			c1.242,0,2.436-0.205,3.552-0.578c3.223,4.274,8.343,7.039,14.108,7.039c5.386,0,10.204-2.413,13.443-6.213
			c1.043,0.395,2.174,0.613,3.355,0.613c5.234,0,9.477-4.242,9.477-9.477c0-5.233-4.242-9.477-9.477-9.477
			c-0.177,0-0.353,0.006-0.527,0.016c-2.681-6.337-8.957-10.783-16.271-10.783c-5.766,0-10.886,2.764-14.108,7.039
			c-1.116-0.373-2.31-0.578-3.552-0.578c-3.736,0-7.043,1.831-9.077,4.644c-0.669-0.217-1.381-0.337-2.122-0.337
			c-3.806,0-6.892,3.086-6.892,6.893C108.27-34.913,111.356-31.827,115.162-31.827z"/>
		<path opacity="0.2" fill="#FFFFFF" d="M297.56-450.665c0.983,0,1.929-0.159,2.816-0.446c2.7,3.732,7.088,6.163,12.046,6.163
			c1.648,0,3.232-0.272,4.714-0.768c4.277,5.673,11.071,9.342,18.724,9.342c7.146,0,13.541-3.202,17.839-8.246
			c1.386,0.525,2.886,0.814,4.454,0.814c6.945,0,12.576-5.63,12.576-12.576s-5.631-12.576-12.576-12.576
			c-0.234,0-0.468,0.007-0.699,0.02c-3.559-8.41-11.888-14.311-21.594-14.311c-7.652,0-14.446,3.669-18.724,9.342
			c-1.481-0.495-3.065-0.767-4.714-0.767c-4.958,0-9.346,2.43-12.046,6.162c-0.888-0.287-1.833-0.446-2.816-0.446
			c-5.051,0-9.146,4.095-9.146,9.146S292.509-450.665,297.56-450.665z"/>
		<path opacity="0.2" fill="#FFFFFF" d="M-313.74-231.92c0.59,0,1.158-0.096,1.69-0.268c1.621,2.24,4.255,3.699,7.231,3.699
			c0.989,0,1.939-0.164,2.829-0.461c2.567,3.406,6.646,5.608,11.239,5.608c4.29,0,8.128-1.922,10.708-4.95
			c0.832,0.315,1.732,0.489,2.674,0.489c4.169,0,7.549-3.38,7.549-7.549c0-4.169-3.38-7.549-7.549-7.549
			c-0.141,0-0.281,0.004-0.42,0.012c-2.136-5.048-7.136-8.591-12.962-8.591c-4.593,0-8.672,2.203-11.239,5.608
			c-0.89-0.297-1.84-0.46-2.829-0.46c-2.977,0-5.611,1.458-7.231,3.699c-0.533-0.172-1.1-0.268-1.69-0.268
			c-3.032,0-5.49,2.458-5.49,5.49C-319.229-234.379-316.771-231.92-313.74-231.92z"/>
		<path opacity="0.2" fill="#FFFFFF" d="M-158.028-431.404c0.59,0,1.158-0.095,1.69-0.268c1.621,2.24,4.255,3.699,7.231,3.699
			c0.99,0,1.94-0.164,2.829-0.461c2.568,3.406,6.646,5.608,11.24,5.608c4.29,0,8.128-1.922,10.708-4.95
			c0.832,0.315,1.732,0.489,2.674,0.489c4.169,0,7.549-3.38,7.549-7.549c0-4.169-3.38-7.549-7.549-7.549
			c-0.141,0-0.281,0.004-0.42,0.012c-2.136-5.048-7.136-8.591-12.962-8.591c-4.594,0-8.672,2.203-11.24,5.608
			c-0.889-0.297-1.839-0.46-2.829-0.46c-2.976,0-5.61,1.458-7.231,3.699c-0.533-0.172-1.1-0.268-1.69-0.268
			c-3.032,0-5.49,2.458-5.49,5.49C-163.518-433.862-161.06-431.404-158.028-431.404z"/>
		<polygon fill="#D9DAD7"  a:adobe-blending-mode="multiply" points="166.022,-428.684 186.143,-450.968 164.532,-468.796 
			179.436,-488.407 149.627,-488.407 46.789,-488.407 -56.05,-488.407 -85.858,-488.407 -70.954,-468.796 -92.565,-450.968 
			-72.445,-428.684 -89.95,-414.457 -70.954,-398.376 -88.094,-383.223 -65.738,-371.635 -84.05,-347.567 -56.05,-347.567 
			46.789,-347.567 149.627,-347.567 177.627,-347.567 159.315,-371.635 181.671,-383.223 164.532,-398.376 183.527,-414.457 		"/>
		<polygon fill="#FFFFFF" points="166.022,-436.426 186.143,-458.71 164.532,-476.538 179.436,-496.148 149.627,-496.148 
			46.789,-496.148 -56.05,-496.148 -85.858,-496.148 -70.954,-476.538 -92.565,-458.71 -72.445,-436.426 -89.95,-422.198 
			-70.954,-406.118 -88.094,-390.965 -65.738,-379.376 -84.05,-355.309 -56.05,-355.309 46.789,-355.309 149.627,-355.309 
			177.627,-355.309 159.315,-379.376 181.671,-390.965 164.532,-406.118 183.527,-422.198 		"/>
		<g>
			<path fill="#604C44" d="M-230.962-294.279c-4.962,0-9.022,4.06-9.022,9.022v6.602c0,4.962,4.06,9.022,9.022,9.022
				c4.963,0,9.023-4.06,9.023-9.022v-6.602C-221.939-290.219-226-294.279-230.962-294.279z"/>
			<path fill="#9C2315" d="M-235.583-343.573h-6.162c-2.542,0-4.621,2.08-4.621,4.621c0,2.542,2.08,4.622,4.621,4.622h6.162
				c2.542,0,4.621-2.08,4.621-4.622C-230.962-341.494-233.042-343.573-235.583-343.573z"/>
			<path fill="#D83627" d="M-192.671-364.149v71.961h-52.155c0,0,0-17.651,0-23.845c0-6.194,11.223-19.398,11.223-19.398
				s7.262-23.437,9.903-25.748C-221.06-363.489-208.846-364.149-192.671-364.149z"/>
			<path fill="#FFFFFF" d="M-239.615-316.031c-4.301-0.171-1.991,8.51-0.447,11.214c1.544,2.705,20.74,1.818,22.429,0.895
				C-215.944-304.846-216.856-315.123-239.615-316.031z"/>
			<polygon fill="#FFFFFF" points="-192.671,-309.521 -192.671,-294.829 -209.176,-294.829 -211.487,-309.521 			"/>
			<path fill="#9C2315" d="M-192.671-292.188v10.233c0,0-47.534,0-52.155,0c-4.622,0-5.062-10.233,0-10.233
				C-239.765-292.188-192.671-292.188-192.671-292.188z"/>
			<path fill="#FFFFFF" d="M-192.671-334.331h-36.913c0,0,6.652-18.926,9.018-22.007c2.367-3.081,15.571-3.521,27.895-3.521
				V-334.331z"/>
			<path fill="#4A3A33" d="M-154.38-294.279c4.962,0,9.023,4.06,9.023,9.022v6.602c0,4.962-4.061,9.022-9.023,9.022
				s-9.022-4.06-9.022-9.022v-6.602C-163.402-290.219-159.342-294.279-154.38-294.279z"/>
			<path fill="#A02517" d="M-149.758-343.573h6.162c2.542,0,4.622,2.08,4.622,4.621c0,2.542-2.08,4.622-4.622,4.622h-6.162
				c-2.542,0-4.622-2.08-4.622-4.622C-154.38-341.494-152.3-343.573-149.758-343.573z"/>
			<path fill="#BD2E20" d="M-192.671-364.149v71.961h52.155c0,0,0-17.651,0-23.845c0-6.194-11.223-19.398-11.223-19.398
				s-7.262-23.437-9.903-25.748C-164.283-363.489-176.496-364.149-192.671-364.149z"/>
			<path fill="#DCF1FC" d="M-145.727-316.031c4.3-0.171,1.991,8.51,0.447,11.214c-1.544,2.705-20.74,1.818-22.429,0.895
				S-168.486-315.123-145.727-316.031z"/>
			<polygon fill="#DCF1FC" points="-192.671,-309.521 -192.671,-294.829 -176.166,-294.829 -173.855,-309.521 			"/>
			<path fill="#881C0C" d="M-192.671-292.188v10.233c0,0,47.534,0,52.155,0s5.062-10.233,0-10.233S-192.671-292.188-192.671-292.188
				z"/>
			<path fill="#DCF1FC" d="M-192.671-334.331h36.912c0,0-6.651-18.926-9.018-22.007c-2.367-3.081-15.57-3.521-27.894-3.521V-334.331
				z"/>
		</g>
		<g>
			<path fill="#F5871F" d="M282.047-126.049H274.5c-2.521,0-4.582,2.063-4.582,4.583v1.269h12.129V-126.049z"/>
			<path fill="#F06022" d="M294.177-120.197v-1.269c0-2.521-2.063-4.583-4.583-4.583h-7.547v5.852H294.177z"/>
			<path fill="#F9A719" d="M251.63-79.376v-26.399c0-3.018,2.446-5.464,5.465-5.464h24.952v-8.958h-12.129h-15.787
				c-4.944,0-8.989,4.045-8.989,8.989V-78c1.376-0.857,2.982-1.376,4.714-1.376H251.63z"/>
			<path fill="#F5871F" d="M282.047-111.239H307c3.019,0,5.465,2.446,5.465,5.464v26.399h1.774c1.731,0,3.338,0.519,4.714,1.376
				v-33.208c0-4.944-4.045-8.989-8.989-8.989h-15.786h-12.13V-111.239z"/>
			<path fill="#FFFFFF" d="M257.095-111.239c-3.019,0-5.465,2.446-5.465,5.464v26.399h30.417v-31.863H257.095z"/>
			<path fill="#DCF1FC" d="M312.464-105.775c0-3.018-2.446-5.464-5.465-5.464h-24.952v31.863h30.417V-105.775z"/>
			<path fill="#604C44" d="M243.904-30.318v3.376c0,5.074,3.418,9.226,7.596,9.226c4.177,0,7.595-4.151,7.595-9.226v-3.376h-9.238
				H243.904z"/>
			<path fill="#4A3A33" d="M304.607-30.318v3.376c0,5.074,3.418,9.226,7.595,9.226c4.178,0,7.595-4.151,7.595-9.226v-3.376h-5.558
				H304.607z"/>
			<path fill="#F06022" d="M312.464-79.376h-30.417v20.704h10.72c2.521,0,4.583,2.062,4.583,4.582v2.536
				c0,2.521-2.063,4.583-4.583,4.583h-10.72v4.501h40.483c0.24,0,0.473,0.032,0.698,0.083v-27.999c0-3.213-1.723-6.023-4.276-7.614
				c-1.376-0.857-2.982-1.376-4.714-1.376H312.464z M319.178-53.946c0,3.853-3.123,6.976-6.977,6.976
				c-3.853,0-6.976-3.123-6.976-6.976c0-3.854,3.123-6.977,6.976-6.977C316.055-60.923,319.178-57.8,319.178-53.946z"/>
			<path fill="#F5871F" d="M282.047-42.47v-4.501h-10.72c-2.521,0-4.582-2.063-4.582-4.583v-2.536c0-2.521,2.062-4.582,4.582-4.582
				h10.72v-20.704H251.63h-1.774c-1.731,0-3.338,0.519-4.714,1.376c-2.554,1.591-4.276,4.401-4.276,7.614v27.999
				c0.226-0.051,0.458-0.083,0.698-0.083H282.047z M252.118-60.923c3.854,0,6.977,3.123,6.977,6.977
				c0,3.853-3.123,6.976-6.977,6.976c-3.853,0-6.976-3.123-6.976-6.976C245.142-57.8,248.265-60.923,252.118-60.923z"/>
			<path fill="#B25413" d="M241.564-42.47c-0.24,0-0.473,0.032-0.698,0.083c-1.411,0.321-2.475,1.585-2.475,3.09v5.806
				c0,1.745,1.428,3.173,3.173,3.173h2.34h5.952h9.238h22.953V-42.47H241.564z"/>
			<path fill="#B25413" d="M323.229-42.387c-0.226-0.051-0.458-0.083-0.698-0.083h-40.483v12.151h22.56h9.632h5.558h2.734
				c1.745,0,3.173-1.428,3.173-3.173v-5.806C325.704-40.802,324.64-42.065,323.229-42.387z"/>
			<circle fill="#FFFFFF" cx="252.118" cy="-53.947" r="6.976"/>
			<circle fill="#DCF1FC" cx="312.202" cy="-53.946" r="6.976"/>
			<path fill="#FFFFFF" d="M271.328-58.672c-2.521,0-4.582,2.062-4.582,4.582v2.536c0,2.521,2.062,4.583,4.582,4.583h10.72v-11.701
				H271.328z"/>
			<path fill="#DCF1FC" d="M297.35-51.554v-2.536c0-2.521-2.063-4.582-4.583-4.582h-10.72v11.701h10.72
				C295.288-46.971,297.35-49.033,297.35-51.554z"/>
		</g>
		<g>
			<path fill="none" d="M-192.126-39.75h32.407l-5.21-6.665c-5.442,2.568-13.944,4.407-27.197,4.407V-39.75z"/>
			<path fill="none" d="M-220.119-46.791l-5.504,7.041h33.497v-2.258C-206.025-42.008-214.722-44.024-220.119-46.791z"/>
			<polygon fill="none" points="-232.604,-30.82 -192.126,-30.82 -192.126,-35.019 -229.323,-35.019 			"/>
			<polygon fill="none" points="-152.737,-30.82 -156.02,-35.019 -192.126,-35.019 -192.126,-30.82 			"/>
			<path fill="#454547" d="M-139.743-21.88l-21.102-26.99c-1.116,0.864-2.466,1.691-4.085,2.455l5.21,6.665h-32.407v4.731h36.107
				l3.282,4.198h-39.389v4.731h43.089l5.568,7.122c0.466,0.598,1.162,0.909,1.865,0.909c0.51,0,1.023-0.164,1.456-0.502
				C-139.12-19.364-138.938-20.851-139.743-21.88z"/>
			<path fill="#5B5B5D" d="M-232.604-30.82l3.282-4.198h37.196v-4.731h-33.497l5.504-7.041c-1.591-0.815-2.899-1.696-3.964-2.61
				l-21.517,27.521c-0.805,1.029-0.623,2.516,0.407,3.32c0.432,0.338,0.945,0.502,1.456,0.502c0.702,0,1.399-0.312,1.865-0.909
				l5.568-7.122h44.178v-4.731H-232.604z"/>
			<path fill="#35A9E0" d="M-192.126-114.092h-10.025c-1.4,0-2.546-1.146-2.546-2.546s1.146-2.547,2.546-2.547h10.025v-6.522
				h-15.134c-10.519,0-19.125,8.605-19.125,19.124v42.193c0,0.752,0.056,1.49,0.141,2.221c5.536,0.95,23.473,3.88,34.118,3.88
				V-114.092z M-214.95-62.615c-4.138,0-7.492-3.354-7.492-7.492s3.354-7.492,7.492-7.492s7.492,3.354,7.492,7.492
				S-210.813-62.615-214.95-62.615z M-192.868-91.401c0,4.338-3.549,7.887-7.886,7.887h-13.407c-4.337,0-7.886-3.549-7.886-7.887
				v-9.464c0-4.337,3.549-7.887,7.886-7.887h13.407c4.337,0,7.886,3.55,7.886,7.887V-91.401z"/>
			<path fill="#009FDE" d="M-182.796-119.185c1.4,0,2.546,1.146,2.546,2.547s-1.146,2.546-2.546,2.546h-9.331v55.803
				c9.811,0,25.812-2.488,32.595-3.622c0.107-0.813,0.181-1.637,0.181-2.479v-42.193c0-10.519-8.606-19.124-19.125-19.124h-13.651
				v6.522H-182.796z M-169.302-62.615c-4.138,0-7.492-3.354-7.492-7.492s3.354-7.492,7.492-7.492c4.138,0,7.492,3.354,7.492,7.492
				S-165.165-62.615-169.302-62.615z M-170.091-108.752c4.338,0,7.887,3.55,7.887,7.887v9.464c0,4.338-3.549,7.887-7.887,7.887
				h-13.407c-4.338,0-7.887-3.549-7.887-7.887v-9.464c0-4.337,3.549-7.887,7.887-7.887H-170.091z"/>
			<path fill="#115978" d="M-192.126-42.008v-2.666h-4.138c-2.413,0-4.387-1.974-4.387-4.387v-1.183
				c0-2.413,1.974-4.388,4.387-4.388h4.138v-3.658c-10.645,0-28.582-2.93-34.118-3.88c-1.071-0.184-1.685-0.294-1.685-0.294
				s-2.982,7.204,3.847,13.062c1.065,0.914,2.373,1.795,3.964,2.61C-214.722-44.024-206.025-42.008-192.126-42.008z"/>
			<path fill="#034863" d="M-192.126-54.631h3.744c2.413,0,4.387,1.975,4.387,4.388v1.183c0,2.413-1.974,4.387-4.387,4.387h-3.744
				v2.666c13.252,0,21.754-1.839,27.197-4.407c1.619-0.764,2.969-1.591,4.085-2.455c7.669-5.944,4.521-13.593,4.521-13.593
				s-1.208,0.218-3.208,0.552c-6.784,1.134-22.784,3.622-32.595,3.622V-54.631z"/>
			<circle fill="#FFFFFF" cx="-214.95" cy="-70.107" r="7.492"/>
			<path fill="#FFFFFF" d="M-200.754-108.752h-13.407c-4.337,0-7.886,3.55-7.886,7.887v9.464c0,4.338,3.549,7.887,7.886,7.887
				h13.407c4.337,0,7.886-3.549,7.886-7.887v-9.464C-192.868-105.202-196.417-108.752-200.754-108.752z"/>
			<circle fill="#DCF1FC" cx="-169.302" cy="-70.107" r="7.492"/>
			<path fill="#DCF1FC" d="M-191.385-100.865v9.464c0,4.338,3.549,7.887,7.887,7.887h13.407c4.338,0,7.887-3.549,7.887-7.887v-9.464
				c0-4.337-3.549-7.887-7.887-7.887h-13.407C-187.836-108.752-191.385-105.202-191.385-100.865z"/>
			<path fill="#034863" d="M-180.25-116.638c0-1.4-1.146-2.547-2.546-2.547h-9.331v5.093h9.331
				C-181.396-114.092-180.25-115.237-180.25-116.638z"/>
			<path fill="#115978" d="M-202.151-119.185c-1.4,0-2.546,1.146-2.546,2.547s1.146,2.546,2.546,2.546h10.025v-5.093H-202.151z"/>
			<path fill="#002A40" d="M-183.996-49.061v-1.183c0-2.413-1.974-4.388-4.387-4.388h-3.744v9.957h3.744
				C-185.97-44.674-183.996-46.647-183.996-49.061z"/>
			<path fill="#003B53" d="M-196.265-54.631c-2.413,0-4.387,1.975-4.387,4.388v1.183c0,2.413,1.974,4.387,4.387,4.387h4.138v-9.957
				H-196.265z"/>
		</g>
		<g>
			<path fill="#FFFFFF" d="M48.753,108.085v-58.7L4.014,61.928l15.051,46.157c0,0,7.024-1.003,12.041,3.011
				C36.124,115.109,39.307,108.085,48.753,108.085z"/>
			<polygon fill="#FFFFFF" points="48.753,46.375 48.753,38.285 12.856,38.285 8.717,59.732 			"/>
			<polygon fill="#5DC6D1" points="48.753,46.375 48.753,56.785 4.014,70.457 0,58.416 			"/>
			
				<ellipse transform="matrix(0.959 -0.2833 0.2833 0.959 -20.8035 8.6049)" fill="#5DC6D1" cx="19.352" cy="76.236" rx="3.416" ry="5.076"/>
			
				<ellipse transform="matrix(0.959 -0.2834 0.2834 0.959 -18.8307 12.389)" fill="#5DC6D1" cx="33.4" cy="71.272" rx="2.553" ry="3.793"/>
			<rect x="14.173" y="28.689" fill="#FFFFFF" width="34.58" height="9.501"/>
			<rect x="11.163" y="36.779" fill="#5DC6D1" width="37.59" height="2.822"/>
			<polygon fill="#5DC6D1" points="48.753,22.192 48.753,28.689 13.797,28.689 8.717,22.192 			"/>
			<rect x="18.11" y="27.843" fill="#5DC6D1" width="1.589" height="9.596"/>
			<rect x="26.482" y="27.843" fill="#5DC6D1" width="1.589" height="9.596"/>
			<rect x="34.854" y="27.843" fill="#5DC6D1" width="1.589" height="9.596"/>
			<rect x="43.227" y="27.843" fill="#5DC6D1" width="1.589" height="9.596"/>
			<polygon fill="#FFFFFF" points="48.753,22.192 48.753,18.153 32.235,18.153 34.854,22.192 			"/>
			<rect x="38.82" y="2.948" fill="#5DC6D1" width="9.934" height="15.205"/>
			<rect x="37.198" fill="#FFFFFF" width="11.555" height="2.948"/>
			<rect x="38.82" y="10.551" fill="#FFFFFF" width="9.934" height="3.146"/>
			<path fill="#DCF1FC" d="M48.753,108.085v-58.7l44.739,12.543l-15.052,46.157c0,0-7.024-1.003-12.041,3.011
				C61.382,115.109,58.199,108.085,48.753,108.085z"/>
			<polygon fill="#DCF1FC" points="48.753,46.375 48.753,38.285 84.65,38.285 88.789,59.732 			"/>
			<polygon fill="#0ABAB5" points="48.753,46.375 48.753,56.785 93.493,70.457 97.506,58.416 			"/>
			
				<ellipse transform="matrix(-0.959 -0.2833 0.2833 -0.959 131.5099 171.4893)" fill="#0ABAB5" cx="78.154" cy="76.236" rx="3.416" ry="5.076"/>
			
				<ellipse transform="matrix(-0.959 -0.2835 0.2835 -0.959 105.3805 157.7927)" fill="#0ABAB5" cx="64.106" cy="71.272" rx="2.553" ry="3.793"/>
			<rect x="48.753" y="28.689" fill="#DCF1FC" width="34.579" height="9.501"/>
			<rect x="48.753" y="36.779" fill="#0ABAB5" width="37.59" height="2.822"/>
			<polygon fill="#0ABAB5" points="48.753,22.192 48.753,28.689 83.709,28.689 88.789,22.192 			"/>
			<rect x="77.806" y="27.843" fill="#0ABAB5" width="1.59" height="9.596"/>
			<rect x="69.434" y="27.843" fill="#0ABAB5" width="1.59" height="9.596"/>
			<rect x="61.062" y="27.843" fill="#0ABAB5" width="1.589" height="9.596"/>
			<rect x="52.69" y="27.843" fill="#0ABAB5" width="1.589" height="9.596"/>
			<polygon fill="#DCF1FC" points="48.753,22.192 48.753,18.153 65.271,18.153 62.651,22.192 			"/>
			<rect x="48.753" y="2.948" fill="#0ABAB5" width="9.933" height="15.205"/>
			<rect x="48.753" fill="#DCF1FC" width="11.555" height="2.948"/>
			<rect x="48.753" y="10.551" fill="#DCF1FC" width="9.933" height="3.146"/>
			<path fill="#90D8F7" d="M48.753,108.085c0,0,0,1.39,0,4.25c-5.599,0-7.965,6.012-17.231,3.843s-5.412-4.531-12.17-4.435
				c-6.757,0.097-9.518,2.66-9.518,2.66s2.313-4.289,9.23-6.318c8.711-2.554,12.888,2.967,17.01,2.77
				C40.197,110.657,41.299,108.085,48.753,108.085z"/>
			<path fill="#5BCAF4" d="M48.753,108.085c0,0,0,1.39,0,4.25c5.598,0,7.964,6.012,17.23,3.843s5.412-4.531,12.17-4.435
				s9.518,2.66,9.518,2.66s-2.313-4.289-9.23-6.318c-8.711-2.554-12.888,2.967-17.01,2.77S56.207,108.085,48.753,108.085z"/>
		</g>
		<g>
			<g>
				<circle fill="#FFFFFF" cx="40.76" cy="-187.716" r="110.296"/>
				<path fill="#7BC9B2" d="M-47.309-236.024c-0.034-0.82,0.742-1.587,1.147-2.216c0.719-1.116,1.509-2.205,2.178-3.352
					c0.602-1.033,1.094-2.111,1.9-3.013c0.676-0.756,1.475-1.303,2.129-2.085c1.683-2.01,3.956-3.412,5.896-5.162
					c1.757-1.585,3.693-2.996,5.679-4.264c2.514-1.604,5.271-3.286,7.149-5.654c1.262-1.591,3.625-3.728,0.426-4.511
					c-1.587-0.388-3.619-0.156-5.129,0.236c-0.567,0.147-2.018,0.424-2.188-0.302c-0.184-0.785,1.335-2.394,1.739-3.001
					c1.278-1.921,2.794-3.522,4.725-4.725c1.466-0.913,2.996-1.825,4.358-2.887c1.68-1.309,3.458-1.106,5.474-1.366
					c1.057-0.136,1.898-0.711,2.994-0.364c0.489,0.154,0.868,0.542,1.376,0.684c0.7,0.197,1.39-0.083,2.063,0.063
					c0.544,0.118,1.208,0.629,1.667,0.962c0.428,0.31,0.973,0.709,1.327,1.094c0.4,0.435,0.463,0.713,0.809,1.271
					c0.39,0.629,0.888,1.036,1.221,1.718c0.261,0.536,0.32,1.204,0.598,1.72c0.802,1.491,1.743,1.826,3.325,1.805
					c2.366-0.032,4.613-0.018,6.86,0.429c1.697,0.337,3.192,1.629,5.12,1.305c0.767-0.129,1.447-0.581,2.115-0.877
					c0.831-0.368,1.775-0.495,2.609-0.855c0.671-0.29,1.351-0.499,1.601-1.274c0.338-1.046-0.083-1.81,0.506-2.677
					c0.927-1.363,3.354-0.825,4.709-0.323c1.888,0.699,2.772,1.7,3.732,3.419c0.563,1.008,0.993,1.373,0.971,2.565
					c-0.016,0.854,0.002,1.71,0.001,2.565c-0.001,0.945,0.071,1.692-0.312,2.563c-0.273,0.622-0.794,1.815-1.271,2.266
					c-0.792,0.748-3.506,0.454-4.305-0.224c-1.434-1.216,0.291-3.62,0.66-5.032c0.269-1.028,0.003-1.207-0.758-1.711
					c-0.542-0.358-1.353-1.09-2.051-0.78c-1.666,0.74-1.208,3.158-3.079,3.686c-0.823,0.232-1.717,0.03-2.563,0.077
					c-0.84,0.046-1.821,0.37-2.587,0.746c-0.567,0.278-1.042,0.809-1.571,1.091c-0.82,0.438-1.706,0.31-2.682,0.311
					c-1.577,0.001-3.339-0.283-4.703,0.427c-1.15,0.6-2.882,1.628-3.333,2.983c-0.548,1.646,0.273,3.745,1.088,5.162
					c0.284,0.494,0.625,1.739,1.049,2.051c0.535,0.393,2.241,0.051,2.906,0.063c1.303,0.023,1.654-0.354,2.565-1.283
					c0.824-0.839,1.668-1.555,2.253-2.573c0.863-1.502,2.614-1.897,4.136-2.557c1.214-0.526,2.411-1.959,3.776-1.61
					c1.565,0.4,2.274,2.327,3.942,2.809c0.841,0.243,1.414-0.132,2.041,0.609c0.509,0.602,0.387,1.338,0.501,2.042
					c0.143,0.881,0.749,1.683,0.9,2.563c0.173,1.009-0.053,2.071-0.345,2.993c-0.56,1.769-1.987,4.075-3.951,4.617
					c-0.761,0.21-1.398,0.364-2.129,0.513c-0.991,0.202-1.998,0.709-3.002,0.877c-0.85,0.142-1.402-0.138-2.136,0.397
					c-0.627,0.458-1.199,1.243-0.792,2.156c0.333,0.746,1.33,0.958,1.761,1.679c0.509,0.852,0.506,2.157-0.203,2.918
					c-0.64,0.688-1.644,1.462-2.479,1.813c-0.886,0.374-1.671,0.29-2.565,0.514c-0.963,0.243-1.973,0.659-2.994,0.784
					c-1.547,0.189-2.896,0.264-4.379,0.822c-1.17,0.439-2.593,1.011-3.645,1.696c-0.971,0.632-1.778,1.513-2.758,2.162
					c-1.245,0.824-2.311,1.478-3.418,2.458c-1.127,0.997-2.765,1.503-3.666,2.684c-0.91,1.193-1.004,2.501-1.892,3.742
					c-0.527,0.737-1.313,1.233-2.044,1.782c-0.883,0.664-1.754,1.746-2.457,2.575c-1.057,1.246-2.692,2.556-2.67,4.289
					c0.011,0.851-0.014,1.702-0.003,2.553c0.007,0.57,0.036,1.058-0.094,1.625c-0.104,0.454-0.206,1.399-0.396,1.804
					c-0.625,1.333-2.889,2.542-4.21,2.896c-1.48,0.396-1.292-0.328-1.283-1.582c0.014-1.673,0.111-3.405,0.009-5.075
					c-0.055-0.891-0.287-1.763-0.416-2.65c-0.128-0.881-0.705-1.543-1.401-2.029c-1.738-1.212-4.274-1.435-6.326-1.39
					c-3.91,0.086-7.113,4.19-8.968,7.256c-0.601,0.993-0.98,2.013-1.613,3.001c-0.55,0.86-0.531,1.588-0.524,2.567
					c0.014,1.977,0.076,3.531,2.137,4.392c1.262,0.527,2.885,1.509,4.275,1.08c0.959-0.296,1.478-1.069,2.575-0.683
					c0.841,0.296,1.953,1.221,2.158,2.052c0.468,1.895-1.238,2.932-1.323,4.701c-0.043,0.893-0.08,1.754,0.312,2.565
					c0.512,1.061,1.463,1.376,2.156,2.221c0.864,1.053,2.093,2.896,2.255,4.182c0.201,1.597,0.226,3.923-0.105,5.472
					c-0.152,0.711-0.556,1.339-0.247,2.243c0.269,0.787,0.892,1.275,1.101,2.129c0.182,0.745,0.213,1.802,0.105,2.572
					c-0.083,0.589,0.163,0.626-0.405,0.877c-0.307,0.136-1.425,0.027-1.741-0.095c-0.569-0.22-1.326-1.147-1.635-1.655
					c-0.04-0.257-0.096-0.51-0.17-0.76c-0.211-0.269-0.538-0.366-0.76-0.598c-0.973-1.018-1.118-2.517-1.807-3.666
					c-0.27-0.45-0.801-0.678-1.102-1.058c-0.301-0.381-0.672-1.144-0.951-1.594c-0.75-1.21-1.621-3.034-2.031-4.378
					c-0.157-0.516-0.156-0.831-0.396-1.284c-0.352-0.666-0.924-1.198-1.41-1.72c-1.104-1.189-2.8-2.27-4.283-3.005
					c-1.223-0.605-2.22-1.714-2.962-2.856c-1.226-1.887-3.071-3.707-3.462-6.014c-0.094-0.555,0.044-1.222,0.03-1.786
					c-0.028-1.16-0.409-2.173-0.447-3.336c-0.063-1.881,0.011-3.779,0.01-5.663c-0.001-2.059-0.278-3.612-0.961-5.567
					c-0.314-0.898-0.712-1.602-0.759-2.544c-0.049-0.979-0.083-1.555-0.322-2.46c-0.186-0.7-0.102-1.436-0.095-2.16
					c0.009-0.97-0.119-1.666-0.333-2.563c-0.315-1.323-0.085-2.897-0.095-4.265c-0.009-1.29,0.4-1.99,0.75-3.087
					c0.343-1.075,1.382-2.136,1.471-3.242C-50.959-232.549-47.424-235.996-47.309-236.024z"/>
				<path fill="#7BC9B2" d="M-22.514-168.906c1.097,0.054,2.285-2.305,2.983-2.992c1.376-1.354,2.53-2.444,4.19-3.429
					c2.611-1.548,5.372-1.382,8.346-1.282c1.472,0.049,2.216,0.748,3.292,1.718c1.178,1.063,2.483,2.215,3.858,3.015
					c2.956,1.718,5.195,4.217,6.839,7.224c0.792,1.448,1.36,3.114,2.034,4.628c0.575,1.291,1.271,2.456,2.231,3.54
					c0.868,0.981,1.5,1.903,2.232,2.979c0.771,1.131,1.937,1.648,2.897,2.545c1.572,1.467,2.638,3.073,4.681,3.963
					c1.034,0.45,2.213,0.999,3.316,1.188c1.868,0.319,3.486,0.423,5.254,1.168c1.355,0.571,2.635,1.259,3.957,1.907
					c1.36,0.668,2.759,1.257,4.049,2.034c1.32,0.796,2.555,1.711,3.87,2.479c0.992,0.579,2.165,1.078,3.088,1.786
					c1.766,1.355,1.756,3.413,1.72,5.451c-0.03,1.716-0.748,2.714-1.719,4.092c-0.982,1.396-1.925,3.012-3.077,4.265
					c-2.195,2.388-4.372,4.889-6.329,7.484c-0.999,1.325-2.123,2.545-2.979,3.96c-0.779,1.287-2.342,2.336-3.431,3.411
					c-0.926,0.915-1.385,1.855-2.137,2.897c-0.67,0.929-0.892,1.597-1.286,2.66c-0.708,1.913-1.604,4.761-3.42,5.9
					c-1.402,0.879-3.392,1.721-3.867,3.482c-0.201,0.746,0.023,1.901,0.021,2.683c-0.004,1.262,0.149,2.136,0.533,3.325
					c0.331,1.026,0.885,3.964,0.021,4.828c-1.343,1.341-4.334-0.734-5.161-1.826c-1.373-1.812-2.848-3.142-4.806-4.39
					c-2.06-1.313-3.674-3.087-5.549-4.598c-1.046-0.843-2.218-1.877-3.013-2.969c-0.733-1.007-0.81-2.371-1.134-3.53
					c-0.914-3.269-2.655-6.069-3.547-9.32c-0.603-2.196-0.576-4.396-1.807-6.411c-0.579-0.948-1.251-1.786-2.044-2.564
					c-1.212-1.19-2.119-2.577-3.323-3.763c-1.63-1.604-3.19-3.19-4.79-4.778c-1.001-0.994-2.049-1.965-3.009-2.999
					c-0.363-0.391-0.625-0.78-0.952-1.192c-0.252-0.106-0.468-0.266-0.645-0.477c-0.133-0.428-0.307-0.839-0.52-1.233
					c-0.838-1.375-1.701-2.677-2.458-4.037c-1.102-1.979-1.385-4.453-1.924-6.627c-0.542-2.185-1.709-4.312-2.066-6.529
					c-0.073-0.453,0.047-0.817-0.071-1.283c-0.129-0.506-0.312-0.732-0.342-1.282c-0.023-0.425,0.043-0.858,0.02-1.283
					c-0.037-0.664-0.348-1.076-0.46-1.71c-0.349-1.982,0.02-4.352,0.877-5.985c0.474-0.902,0.466-1.947,0.95-2.897
					c0.426-0.837,1.626-1.605,1.698-2.578C-25.309-166.285-22.629-168.878-22.514-168.906z"/>
				<path fill="#7BC9B2" d="M122.432-122.64c0.631-1.048,1.233-1.793,2.116-2.66c1.238-1.218,1.737-2.319,2.555-3.836
					c0.718-1.331,1.58-2.438,2.241-3.744c0.74-1.461,1.408-2.854,2.057-4.368c0.684-1.6,1.013-3.415,1.59-5.067
					c0.513-1.468,0.875-2.864,1.272-4.361c0.773-2.914,2.224-5.174,3.548-7.802c0.709-1.406,1.143-3.094,1.595-4.604
					c0.511-1.706,1.667-2.982,2.146-4.703c0.326-1.17,0.544-2.183,0.524-3.398c-0.024-1.544,0.262-2.555,0.856-3.965
					c0.473-1.12,1.126-2.142,1.289-3.314c0.161-1.149,0.075-2.584-0.104-3.719c-0.376-2.368-1.401-4.561-1.602-6.937
					c-0.225-2.671-0.867-5.145-0.867-7.822c0-0.965-0.013-1.931-0.001-2.896c0.013-1.12-0.326-1.278-0.854-2.224
					c-0.583-1.045-0.872-2.318-1.679-3.24c-0.52-0.595-1.217-0.813-1.764-1.353c-0.532-0.525-1.132-1.286-1.603-1.84
					c-0.303-0.356-0.345-0.827-0.607-1.201c-0.254-0.36-0.625-0.444-0.879-0.81c-0.51-0.73-0.923-1.529-1.473-2.255
					c-0.629-0.828-1.001-1.563-1.4-2.492c-0.319-0.745-1.006-1.656-0.896-2.542c0.449-3.624,4.156,1.262,4.648,2.253
					c0.507,1.024,1.147,1.852,1.688,2.875c0.646,1.224,1.513,1.642,2.692,2.245c1.099,0.563,0.963,0.988,1.26,2.053
					c0.155,0.553,0.566,1.657,1.318,1.204c0.604-0.363,0.771-1.952,0.937-2.604c0.291-1.146,0.291-2.225,0.646-3.325
					c0.248-0.772,0.753-1.753,0.553-2.587c-0.143-0.596-0.725-1.074-0.89-1.664c-0.176-0.631,0.079-0.667-0.403-1.221
					c-0.203-0.233-0.605-0.304-0.778-0.598c-0.229-0.39-0.021-0.797-0.077-1.208c-0.129-0.942-0.032-0.586-0.856-0.949
					c-0.346-0.152-1.068-0.168-1.321-0.303c-0.654-0.35-0.148-0.239-0.396-0.877c-0.262-0.676-0.415-1.404-0.738-2.138
					c-0.663-1.508-0.971-3.664-0.117-5.128c0.401-0.688,1.021-1.324,1.408-2.042c0.409-0.758,0.263-1.432,0.291-2.329
					c0.037-1.182,0.563-2.191,0.771-3.304c-12-26.297-34.011-47.048-61.177-57.381c-0.046,1.238,0.221,2.502,0.961,2.981
					c0.529,0.343,1.208,0.289,1.763,0.503c0.521,0.201,0.793,0.435,1.261,0.761c0.408,0.286,0.973,0.469,1.314,0.855
					c0.393,0.443,0.218,0.409,0.489,0.952c1.129,2.259,2.223,4.481,3.325,6.744c0.631,1.296,0.702,2.249,0.95,3.641
					c0.175,0.985,0.613,1.911,0.783,2.877c0.152,0.865-0.228,5.106-2.076,3.781c-0.617-0.442-1.16-2.151-1.473-2.809
					c-0.476-1.003-0.867-2.257-1.583-3.12c-0.745-0.898-1.604-0.977-2.596-1.368c-0.944-0.373-1.625-1.226-2.555-1.625
					c-1.307-0.561-4.083-1.023-4.828,0.429c-0.438,0.851-0.302,1.728-0.302,2.66c-0.002,1.67-0.171,3.332,0.312,4.936
					c0.375,1.247,0.761,2.357,0.958,3.623c0.105,0.673,0.407,1.278,0.464,1.957c0.042,0.504-0.093,0.87,0.062,1.366
					c0.498,1.607,2.072,3.495,3.74,3.871c1.906,0.43,3.073-0.76,3.461-2.565c0.293-1.363-2.387-5.116,0.42-5.181
					c0.841-0.02,1.421,0.838,2.138,1.312c0.81,0.534,1.229,1.172,2.126,1.603c1.84,0.884,2.683,1.566,3.419,3.527
					c0.406,1.083,1.019,3.877,0.128,4.83c-1.137,1.216-3.312,0.679-4.297-0.533c-0.557-0.685-1.221-2.14-1.729-0.457
					c-0.237,0.789-0.086,1.751-0.087,2.572c0,1.475,0.306,4.351-2.137,3.771c-1.083-0.257-1.715-1.362-2.563-1.966
					c-0.962-0.685-1.296-1.141-1.819-2.232c-0.567-1.185-2.59-3.39-4.188-2.491c-2.011,1.131-0.059,3.352,0.556,4.628
					c0.511,1.062,1.19,1.741,2.028,2.565c0.928,0.91,1.703,1.952,2.472,2.992c0.568,0.769,0.94,1.684,1.485,2.469
					c0.454,0.654,0.916,1.026,1.28,1.7c0.313,0.58,0.809,1.102,0.78,1.805c-0.039,0.965-1.015,1.675-1.73,2.15
					c-0.825,0.548-2.09,1.167-2.511,2.138c-0.198,0.459,0.003,0.904-0.041,1.378c-0.054,0.579-0.29,1.164-0.451,1.718
					c-0.534,1.848-1.259,3.9-0.875,5.878c0.315,1.629,2.107,2.768,3.44,3.421c1.434,0.704,3.976,2.601,5.58,1.196
					c1.53-1.34,2.097-4.044,2.53-5.898c0.216-0.924,0.36-1.722,0.535-2.66c0.109-0.593,0.309-1.017,0.342-1.625
					c0.03-0.548-0.12-1.161-0.03-1.7c0.131-0.787,0.734-1.937,1.305-2.479c0.541-0.514,1.203-0.534,1.804-0.824
					c0.729-0.352,1.639-0.91,2.47-1.004c0.946-0.108,1.812,0.563,2.553,0.996c1.705,0.996,1.947,3.207,2.149,5.021
					c0.102,0.907,0.431,1.621,0.428,2.565c-0.004,1.332,0.258,2.063,1.71,2.144c1.789,0.099,3.075-1.731,3.433-3.427
					c0.238-1.134,0.358-1.67,1.697-1.718c0.938-0.034,2.044-0.129,2.971-0.012c1.09,0.137,1.933,0.832,3.015,0.885
					c0.847,0.042,1.717-0.004,2.565-0.01c1.455-0.01,3.653,0.25,4.712,1.368c1.037,1.094,1.266,2.724,1.272,4.19
					c0.009,1.799-0.567,3.672-1.604,5.141c-0.943,1.336-1.923,2.572-3.623,2.553c-1.046-0.012-2.193-0.119-3.218,0.097
					c-0.644,0.136-1.044,0.272-1.719,0.333c-0.699,0.063-1.135,0.33-1.807,0.45c-0.738,0.131-1.949,0.086-2.587-0.324
					c-0.813-0.524-1.274-1.575-2.116-2.168c-1.573-1.11-2.589-2.569-4.297-3.526c-1.401-0.787-2.941-1.749-4.702-1.292
					c-0.828,0.215-1.215,1.033-1.571,1.724c-0.602,1.168-1.287,2.298-1.933,3.403c-0.543,0.931-0.604,1.542-1.595,2.054
					c-0.824,0.425-1.702,0.983-2.574,1.294c-1.711,0.611-4.185,1.378-5.473,2.757c-0.607,0.65-0.932,1.738-1.465,2.468
					c-0.696,0.955-1.818,1.592-2.49,2.543c-1.404,1.99-1.86,4.489-3.066,6.532c-0.752,1.271-1.417,2.246-1.933,3.655
					c-0.375,1.027-0.79,2.113-0.986,3.182c-0.21,1.146,0.151,2.081-0.288,3.231c-0.438,1.146-0.548,1.841-0.544,3.078
					c0.003,1.028,0.091,2.079-0.096,3.086c-0.241,1.306-0.243,2.438-0.322,3.774c-0.067,1.137-0.438,2.113-0.435,3.281
					c0.005,1.482,0.214,2.621,0.746,3.986c0.527,1.354,1.5,2.495,2.243,3.815c0.309,0.547,0.607,1.115,0.761,1.732
					c0.146,0.588,0.002,1.297,0.49,1.764c0.469,0.449,0.796,0.216,1.314,0.445c0.577,0.255,1.08,0.956,1.615,1.327
					c0.724,0.503,1.319,0.766,1.708,1.595c0.351,0.746,0.396,1.506,1.359,1.743c0.536,0.132,1.063-0.187,1.635,0.031
					c0.662,0.253,0.851,0.851,1.376,1.249c0.519,0.393,0.629,0.488,1.254,0.342c0.414-0.293,0.841-0.564,1.282-0.814
					c0.561-0.251,1.145-0.42,1.752-0.509c0.908-0.257,1.422-0.819,2.229-1.21c0.686-0.333,1.387-0.515,2.066-0.842
					c0.995-0.478,1.915-0.735,3.046-0.95c2.942-0.561,5.949-0.069,8.891-0.655c1.271-0.253,2.458-0.432,3.111,0.752
					c0.604,1.096,1.013,1.401,2.011,2.124c1,0.724,2.206,1.606,3.009,2.566c1.051,1.257,1.251,3.232,1.287,4.839
					c0.032,1.432,0.418,2.713,0.436,4.14c0.027,2.168-0.603,4.107-1.314,6.119c-0.334,0.945-0.491,1.883-0.851,2.814
					c-0.289,0.748-0.357,0.833-0.418,1.668c-0.106,1.478-0.698,2.862-1.177,4.274c-0.675,1.994-0.505,4.008-1.046,5.997
					c-0.139,0.51-0.533,0.886-0.687,1.376c-0.146,0.469-0.019,0.828-0.073,1.294c-0.096,0.804-0.402,1.775-0.749,2.556
					c-0.732,1.646-1.418,3.402-1.935,5.128c-0.238,0.798-0.6,1.359-0.748,2.129c-0.101,0.524-0.084,0.774-0.312,1.291
					c-0.2,0.455-0.74,0.973-0.886,1.379c-0.175,0.487-0.309,2.039-0.021,2.501c0.393,0.629,1.929,0.504,2.587,0.429
					c1.321-0.149,2.698-1.005,3.854-1.627c1.638-0.88,2.901-2.153,4.299-3.439C118.817-118.783,121.12-120.458,122.432-122.64z"/>
			</g>
			<path fill="#7BC9B2" d="M38.192-260.392c0.115-0.025,0.229-0.05,0.345-0.075c0.177-0.861,0.668-1.639,0.854-2.48
				c0.23-1.043,0.397-2.255,0.533-3.321c0.221-1.733,0.003-3.705-0.758-5.261c-0.571-1.166-1.169-2.269-2.172-3.086
				c-1.037-0.844-1.341-2.439-0.864-3.73c1.019-2.758,5.633-4.06,8.048-4.809c2.977-0.924,6.642-1.141,9.842-0.76
				c1.48,0.176,2.095,1.995,2.46,3.336c0.511,1.872,1.346,3.694,1.377,5.65c0.01,0.642,0.16,1.518,0.033,2.139
				c-0.147,0.725-0.836,1.466-1.197,2.138c-0.969,1.8-3.008,2.79-4.402,4.275c-0.615,0.656-1.092,1.389-1.595,2.138
				c-0.524,0.781-1.142,1.401-1.719,2.147c-0.407,0.527-0.783,0.906-1.271,1.38c-0.63,0.61-0.82,1.378-1.368,2.04
				c-0.36,0.436-1.12,1.092-1.614,1.388c-0.709,0.425-1.396,0.312-2.255,0.312c-0.545,0-1.58,0.218-2.051-0.087
				C39.917-257.382,38.438-259.896,38.192-260.392z"/>
		</g>
		
			<circle fill="none" stroke="#FFFFFF" stroke-width="3" stroke-linecap="round" stroke-linejoin="round" stroke-miterlimit="10" stroke-dasharray="8" cx="277.171" cy="-316.891" r="85.079"/>
		
			<circle fill="none" stroke="#FFFFFF" stroke-width="3" stroke-linecap="round" stroke-linejoin="round" stroke-miterlimit="10" stroke-dasharray="8" cx="-192.671" cy="-316.891" r="85.08"/>
		
			<circle fill="none" stroke="#FFFFFF" stroke-width="3" stroke-linecap="round" stroke-linejoin="round" stroke-miterlimit="10" stroke-dasharray="8" cx="277.171" cy="-67.64" r="85.079"/>
		
			<circle fill="none" stroke="#FFFFFF" stroke-width="3" stroke-linecap="round" stroke-linejoin="round" stroke-miterlimit="10" stroke-dasharray="8" cx="47.629" cy="60.824" r="85.079"/>
		
			<circle fill="none" stroke="#FFFFFF" stroke-width="3" stroke-linecap="round" stroke-linejoin="round" stroke-miterlimit="10" stroke-dasharray="8" cx="-192.671" cy="-67.64" r="85.08"/>
		
			<circle fill="none" stroke="#FFFFFF" stroke-width="3" stroke-linecap="round" stroke-linejoin="round" stroke-miterlimit="10" stroke-dasharray="8" cx="41.524" cy="-187.716" r="124.046"/>
		<g>
			<path fill="#DCF1FC" d="M323.606-326.375v-4.273c0-3.897-3.188-7.086-7.087-7.086c-3.261,0-5.998,2.244-6.814,5.256l13.63,7.935
				C323.494-325.132,323.606-325.738,323.606-326.375z"/>
			<path fill="#FFFFFF" d="M237.823-337.735c-3.897,0-7.086,3.189-7.086,7.086v4.273c0,0.637,0.112,1.243,0.271,1.831l13.629-7.935
				C243.822-335.491,241.084-337.735,237.823-337.735z"/>
			<path fill="#949697" d="M264.336-343.947l-19.699,11.468l-13.629,7.935l-18.36,10.689v17.57l52.479-12.073
				c-0.566-8.439-0.88-17.609-0.88-27.211C264.247-338.528,264.279-341.306,264.336-343.947z"/>
			<path fill="#949697" d="M271.493-268.163c-0.687-1.953-1.339-4.251-1.95-6.852l-22.664,13.194v8.249l30.293-6.969
				C272.252-260.541,271.043-264.12,271.493-268.163z"/>
			<path fill="#808083" d="M289.215-308.358l52.479,12.073v-17.57l-18.36-10.689l-13.63-7.935l-19.698-11.468
				c0.057,2.641,0.09,5.419,0.09,8.377C290.096-325.968,289.782-316.797,289.215-308.358z"/>
			<path fill="#808083" d="M277.171-260.541l30.292,6.969v-8.249L284.8-275.015c-0.612,2.601-1.264,4.898-1.95,6.852
				C283.298-264.12,282.089-260.541,277.171-260.541z"/>
			<path fill="#FFFFFF" d="M277.171-279.456v-94.672c-3.636,0-7.473,4.61-7.473,4.61s0.606-9.366,7.473-9.366v-7.691
				c-6.629,0-12.089,8.269-12.835,42.628c-0.058,2.641-0.09,5.419-0.09,8.377c0,9.602,0.313,18.772,0.88,27.211
				c0.9,13.42,2.445,24.963,4.416,33.344c0.611,2.601,1.264,4.898,1.95,6.852C272.075-273.417,275.459-279.456,277.171-279.456z"/>
			<path fill="#DCF1FC" d="M290.096-335.569c0-2.958-0.033-5.736-0.09-8.377c-0.747-34.359-6.206-42.628-12.835-42.628v7.691
				c6.866,0,7.472,9.366,7.472,9.366s-3.837-4.61-7.472-4.61v94.672c1.712,0,5.096,6.039,5.679,11.292
				c0.687-1.953,1.338-4.251,1.95-6.852c1.971-8.381,3.515-19.924,4.415-33.344C289.782-316.797,290.096-325.968,290.096-335.569z"
				/>
			<path fill="#B2E2F9" d="M269.699-369.518c0,0,3.837-4.61,7.473-4.61v-4.756C270.305-378.884,269.699-369.518,269.699-369.518z"/>
			<path fill="#7ED2F6" d="M284.643-369.518c0,0-0.605-9.366-7.472-9.366v4.756C280.806-374.128,284.643-369.518,284.643-369.518z"
				/>
			<path fill="#808083" d="M271.493-268.163c-0.449,4.043,0.76,7.623,5.679,7.623v-18.915
				C275.459-279.456,272.075-273.417,271.493-268.163z"/>
			<path fill="#6F7072" d="M282.85-268.163c-0.583-5.254-3.967-11.292-5.679-11.292v18.915
				C282.089-260.541,283.298-264.12,282.85-268.163z"/>
		</g>
		<path fill="#D83627" d="M-22.888-240.387c-0.088,0-0.088,0.136,0,0.136C-22.8-240.251-22.8-240.387-22.888-240.387z"/>
		<path fill="#D83627" d="M-14.574-242.6c-1.882-0.431-3.825,1.81-5.193,2.931c-0.005,0.004-0.01,0.008-0.015,0.012
			c-0.657-0.905-1.277-1.821-2.304-2.316c-0.344-0.166-0.661,0.042-0.705,0.405c-0.158,1.285,0.468,2.384,1.214,3.409
			c-1.371,1.198-2.734,2.613-3.167,4.134c-0.11,0.386,0.293,0.894,0.716,0.716c1.451-0.61,2.638-1.916,3.818-3.074
			c0.9,1.116,1.962,2.245,3.196,2.869c1.227,0.619,2.355-0.848,1.448-1.876c-0.832-0.944-1.856-1.734-2.78-2.614
			c0.824-0.664,1.662-1.31,2.527-1.921c0.858-0.606,1.48-0.834,1.688-1.891C-14.065-242.146-14.218-242.518-14.574-242.6z"/>
		<path fill="#D83627" d="M122.183-240.516c-0.999-1.013-2.064-1.963-3.159-2.88c0.696-0.963,1.35-1.954,1.874-3.017
			c0.252-0.509-0.335-0.932-0.76-0.586c-0.913,0.743-1.726,1.588-2.499,2.472c-1.455-1.12-2.976-2.155-4.557-3.074
			c-1.059-0.615-1.891,0.917-0.939,1.606c1.4,1.015,2.749,2.072,4.062,3.17c-0.239,0.292-0.479,0.583-0.721,0.873
			c-1.521,1.822-3.113,3.634-4.451,5.596c-0.624,0.915,0.778,1.971,1.52,1.172c1.422-1.529,2.674-3.243,3.943-4.901
			c0.38-0.497,0.769-0.99,1.156-1.487c0.984,0.87,1.955,1.758,2.899,2.689c0.269,0.265,0.75,0.445,1.122,0.297
			c0.341-0.136,0.544-0.185,0.69-0.531C122.571-239.606,122.583-240.11,122.183-240.516z"/>
		<path fill="#D83627" d="M14.391-117.314c-0.872-0.629-1.832-1.263-2.826-1.851c0.213-0.328,0.428-0.655,0.662-0.975
			c0.214-0.293,1.993-2.41,0.792-2.739c-1.291-0.354-2.188,1.23-2.853,2.102c-0.15,0.197-0.294,0.406-0.441,0.609
			c-0.694-0.346-1.391-0.657-2.077-0.909c-0.734-0.27-1.296,0.78-0.75,1.289c0.523,0.488,1.104,0.909,1.699,1.312
			c-0.502,0.838-0.944,1.709-1.283,2.605c-0.15,0.396,0.086,0.978,0.471,1.156c0.08,0.037,0.162,0.07,0.245,0.103
			c0.419,0.165,0.945-0.104,1.156-0.47c0.422-0.732,0.823-1.463,1.233-2.187c0.943,0.632,1.892,1.275,2.896,1.795
			C14.555-114.833,15.493-116.52,14.391-117.314z"/>
		<path fill="#D83627" d="M123.126-136.245c-0.783,0.721-1.568,1.494-2.34,2.288c-0.415-0.352-0.822-0.731-1.27-1.038
			c-0.151-0.134-0.321-0.232-0.51-0.296c-0.198-0.055-0.396,0.052-0.578-0.025c-0.364-0.154-0.764,0.169-0.559,0.559
			c0.15,0.284,0.037,0.602,0.295,0.913c0.393,0.477,0.838,0.902,1.275,1.339c-0.808,0.909-1.58,1.842-2.251,2.799
			c-0.324,0.463,0.333,1.149,0.797,0.797c0.924-0.702,1.819-1.502,2.69-2.335c0.468,0.453,0.963,0.873,1.5,1.149
			c0.8,0.41,1.816-0.446,1.287-1.287c-0.324-0.515-0.775-0.97-1.258-1.394c0.724-0.762,1.429-1.534,2.085-2.304
			C124.976-135.883,123.916-136.973,123.126-136.245z"/>
		
			<path fill="none" stroke="#D83627" stroke-width="2" stroke-linecap="round" stroke-linejoin="round" stroke-miterlimit="10" stroke-dasharray="8" d="
			M120.807-139.674c-78.238-105.161-131.598-98.29-131.598-98.29"/>
		
			<path fill="none" stroke="#D83627" stroke-width="2" stroke-linecap="round" stroke-linejoin="round" stroke-miterlimit="10" stroke-dasharray="8" d="
			M11.628-125.319c0,0,32.903-80.806,98.709-115.161"/>
		
			<path fill="none" stroke="#D83627" stroke-width="2" stroke-linecap="round" stroke-linejoin="round" stroke-miterlimit="10" stroke-dasharray="8" d="
			M13.019-122.879"/>
		<g>
			<text transform="matrix(1 0 0 1 -58.0166 -414.9507)" fill="#F89C1D" font-family="'BebasNeueBold'" font-size="88.8949">travel</text>
		</g>
		<g>
			<text transform="matrix(1 0 0 1 -76.5674 -370.189)" fill="#F89C1D" font-family="'BebasNeueBold'" font-size="51.3564">infographic</text>
		</g>
		
			<line fill="none" stroke="#FFFFFF" stroke-width="3" stroke-linecap="round" stroke-linejoin="round" stroke-miterlimit="10" stroke-dasharray="8" x1="-108.371" y1="-269.028" x2="-80.307" y2="-251.609"/>
		
			<line fill="none" stroke="#FFFFFF" stroke-width="3" stroke-linecap="round" stroke-linejoin="round" stroke-miterlimit="10" stroke-dasharray="8" x1="187.756" y1="-269.028" x2="159.692" y2="-251.609"/>
		
			<line fill="none" stroke="#FFFFFF" stroke-width="3" stroke-linecap="round" stroke-linejoin="round" stroke-miterlimit="10" stroke-dasharray="8" x1="-79.339" y1="-122.9" x2="-105.468" y2="-105.48"/>
		
			<line fill="none" stroke="#FFFFFF" stroke-width="3" stroke-linecap="round" stroke-linejoin="round" stroke-miterlimit="10" stroke-dasharray="8" x1="160.66" y1="-122.9" x2="186.789" y2="-105.48"/>
		
			<line fill="none" stroke="#FFFFFF" stroke-width="3" stroke-linecap="round" stroke-linejoin="round" stroke-miterlimit="10" stroke-dasharray="8" x1="48.753" y1="-31.427" x2="48.753" y2="-57.094"/>
		<rect x="-270.951" y="-218.706" fill="none" width="154.837" height="34.838"/>
		<text transform="matrix(1 0 0 1 -261.21 -210.4609)"><tspan x="0" y="0" fill="#FFFFFF" font-family="'OpenSans'" font-size="11.6128">Lorem ipsum dolor sit amet, </tspan><tspan x="-9.662" y="13.935" fill="#FFFFFF" font-family="'OpenSans'" font-size="11.6128">consectetuer adipiscing elit, sed </tspan></text>
		<rect x="196.465" y="-218.706" fill="none" width="154.838" height="34.838"/>
		<text transform="matrix(1 0 0 1 206.2056 -210.4609)"><tspan x="0" y="0" fill="#FFFFFF" font-family="'OpenSans'" font-size="11.6128">Lorem ipsum dolor sit amet, </tspan><tspan x="-9.661" y="13.935" fill="#FFFFFF" font-family="'OpenSans'" font-size="11.6128">consectetuer adipiscing elit, sed </tspan></text>
		<rect x="-270.951" y="31.938" fill="none" width="154.837" height="34.839"/>
		<text transform="matrix(1 0 0 1 -261.21 40.1826)"><tspan x="0" y="0" fill="#FFFFFF" font-family="'OpenSans'" font-size="11.6128">Lorem ipsum dolor sit amet, </tspan><tspan x="-9.662" y="13.936" fill="#FFFFFF" font-family="'OpenSans'" font-size="11.6128">consectetuer adipiscing elit, sed </tspan></text>
		<rect x="196.465" y="31.938" fill="none" width="154.838" height="34.839"/>
		<text transform="matrix(1 0 0 1 206.2056 40.1826)"><tspan x="0" y="0" fill="#FFFFFF" font-family="'OpenSans'" font-size="11.6128">Lorem ipsum dolor sit amet, </tspan><tspan x="-9.661" y="13.936" fill="#FFFFFF" font-family="'OpenSans'" font-size="11.6128">consectetuer adipiscing elit, sed </tspan></text>
		<rect x="-28.049" y="157.099" fill="none" width="154.838" height="34.838"/>
		<text transform="matrix(1 0 0 1 -18.3086 165.3438)"><tspan x="0" y="0" fill="#FFFFFF" font-family="'OpenSans'" font-size="11.6128">Lorem ipsum dolor sit amet, </tspan><tspan x="-9.662" y="13.936" fill="#FFFFFF" font-family="'OpenSans'" font-size="11.6128">consectetuer adipiscing elit, sed </tspan></text>
	</g>
</g>
</svg>
