<?xml version="1.0" encoding="utf-8"?>
<!-- Generator: Adobe Illustrator 16.0.0, SVG Export Plug-In . SVG Version: 6.00 Build 0)  -->
<!DOCTYPE svg PUBLIC "-//W3C//DTD SVG 1.1//EN" "http://www.w3.org/Graphics/SVG/1.1/DTD/svg11.dtd" [
	<!ENTITY ns_flows "http://ns.adobe.com/Flows/1.0/">
	<!ENTITY ns_extend "http://ns.adobe.com/Extensibility/1.0/">
	<!ENTITY ns_ai "http://ns.adobe.com/AdobeIllustrator/10.0/">
	<!ENTITY ns_graphs "http://ns.adobe.com/Graphs/1.0/">
]>
<svg version="1.1" id="Layer_1" xmlns:x="&ns_extend;" xmlns:i="&ns_ai;" xmlns:graph="&ns_graphs;"
	 xmlns="http://www.w3.org/2000/svg" xmlns:xlink="http://www.w3.org/1999/xlink" xmlns:a="http://ns.adobe.com/AdobeSVGViewerExtensions/3.0/"
	 x="0px" y="0px" width="225px" height="250px" viewBox="0 0 225 250" enable-background="new 0 0 225 250" xml:space="preserve">
<g>
	<g>
		<g>
			<g>
				<path fill="#F7B132" d="M28.962,107.666l44.524-62.313c-21.413-9.875-48.74-3.933-61.032,13.269
					C0.165,75.834,7.55,97.787,28.962,107.666z"/>
			</g>
			<g>
				<path fill="#EBCB47" d="M27.491,109.737l2.696-3.766C9.939,96.623,2.954,75.867,14.574,59.605
					c11.622-16.266,37.455-21.889,57.698-12.543l2.695-3.77C52.128,32.758,22.99,39.093,9.887,57.439
					C-3.219,75.788,4.657,99.201,27.491,109.737z"/>
			</g>
			<g>
				<path fill="#EFDB8B" d="M32.005,103.411L70.443,49.61c-18.487-8.528-42.078-3.397-52.695,11.46
					C7.136,75.924,13.52,94.882,32.005,103.411z"/>
			</g>
		</g>
		<g id="XMLID_2_">
			<g>
				<path fill="#EBCB47" d="M39.458,53.773c4.43,1.865,5.226,15.579,5.226,15.579s-16.302-4.114-17.417-8.044
					C26.007,56.846,34.935,51.885,39.458,53.773z"/>
				<path fill="#EBCB47" d="M50.917,68.182c0,0-8.021-12.324-5.254-15.798c2.715-3.535,13.786-2.606,15.426,1.62
					C62.622,57.925,50.917,68.182,50.917,68.182z"/>
				<path fill="#EBCB47" d="M23.582,66.405c4.799-1.196,17.448,8.063,17.448,8.063s-15.259,6.373-19.493,4.198
					C17.191,76.468,18.572,67.67,23.582,66.405z"/>
				<path fill="#EBCB47" d="M42.161,80.442c-0.101,0.252-5.308,13.376-10.261,14.295c-5.419,0.994-11.99-6.307-9.561-10.031
					C24.691,81.133,41.682,80.458,42.161,80.442z"/>
			</g>
			<g>
			</g>
		</g>
	</g>
	<g>
		<polygon fill="#F6F7F9" points="140.292,245.923 52.722,246.191 41.256,76.257 153.783,74.124 		"/>
		<g>
			<path fill="#EAEBEC" d="M151.824,73.967c0,5.574-24.754,10.09-55.284,10.09c-30.531,0-55.284-4.516-55.284-10.09
				c0-5.57,24.753-10.09,55.284-10.09C127.07,63.877,151.824,68.397,151.824,73.967"/>
			<path fill="#F6F7F9" d="M96.54,86.389c-14.977,0-29.087-1.069-39.733-3.012c-12.418-2.267-18.452-5.345-18.452-9.41
				c0-9.825,38.059-12.42,58.185-12.42c20.126,0,58.185,2.595,58.185,12.42c0,4.065-6.035,7.144-18.451,9.41
				C125.627,85.32,111.518,86.389,96.54,86.389z M96.54,66.208c-34.561,0-52.382,5.438-52.382,7.758
				c0,2.321,17.821,7.759,52.382,7.759c34.56,0,52.382-5.438,52.382-7.759C148.922,71.646,131.1,66.208,96.54,66.208z"/>
		</g>
	</g>
	<g>
		<path fill="#EBCB47" d="M135.855,244H58.031l-7.918-121.556c0,0,17.782,6.777,47.253,6.777c32.424,0,47.252-6.547,47.252-6.547
			L135.855,244z"/>
		<path opacity="0.5" fill="#EBCB47" d="M144.618,121.526c0,5.253-21.155,7.236-47.252,7.236c-26.099,0-47.253-1.983-47.253-7.236
			c0-5.25,21.154-11.789,47.253-11.789C123.463,109.737,144.618,116.276,144.618,121.526"/>
	</g>
	<g>
		<path fill="#DB5956" d="M220.554,8.725c-0.771-3.106-4.547-5.121-8.407-4.499l-64.63,13.331c-2.505,0.399-4.552,2.52-5.373,4.46
			L114.851,123h14.612l24.894-94.159l60.595-13.024C218.822,15.196,221.323,11.835,220.554,8.725z"/>
	</g>
</g>
</svg>
