<?xml version="1.0" encoding="utf-8"?>
<!-- Generator: Adobe Illustrator 16.0.0, SVG Export Plug-In . SVG Version: 6.00 Build 0)  -->
<!DOCTYPE svg PUBLIC "-//W3C//DTD SVG 1.1//EN" "http://www.w3.org/Graphics/SVG/1.1/DTD/svg11.dtd" [
	<!ENTITY ns_flows "http://ns.adobe.com/Flows/1.0/">
	<!ENTITY ns_extend "http://ns.adobe.com/Extensibility/1.0/">
	<!ENTITY ns_ai "http://ns.adobe.com/AdobeIllustrator/10.0/">
	<!ENTITY ns_graphs "http://ns.adobe.com/Graphs/1.0/">
]>
<svg version="1.1" id="Layer_1" xmlns:x="&ns_extend;" xmlns:i="&ns_ai;" xmlns:graph="&ns_graphs;"
	 xmlns="http://www.w3.org/2000/svg" xmlns:xlink="http://www.w3.org/1999/xlink" xmlns:a="http://ns.adobe.com/AdobeSVGViewerExtensions/3.0/"
	 x="0px" y="0px" width="225px" height="250px" viewBox="0 0 225 250" enable-background="new 0 0 225 250" xml:space="preserve">
<g>
	<path fill="#163856" d="M211.461,115.992c-4.744,0-11.507,2.012-14.991,4.898h-4.764c-0.849-21.419-8.587-40.871-20.803-55.661
		l3.384-3.77c4.278-0.675,10.393-4.675,13.788-8.456c4.696-5.244,6.048-12.229,3.028-15.599c-3.022-3.376-9.282-1.86-13.98,3.381
		c-3.358,3.741-6.868,10.494-7.508,15.286l-3.464,3.868c-13.273-13.574-30.704-22.131-49.884-23.039v-5.356
		c2.597-3.85,4.386-11.501,4.386-16.849c0-7.419-3.47-13.431-7.742-13.431c-4.283,0-7.745,6.012-7.745,13.431
		c0,5.29,1.797,12.835,4.386,16.729v5.477c-19.183,0.908-36.614,9.464-49.888,23.039l-3.387-3.782
		c-0.597-4.77-4.186-11.596-7.582-15.372c-4.693-5.25-10.958-6.758-13.983-3.381c-3.024,3.37-1.665,10.355,3.033,15.593
		c3.35,3.742,9.411,7.661,13.705,8.373l3.464,3.858c-12.222,14.79-19.954,34.242-20.801,55.661h-4.657
		c-3.443-2.903-10.303-4.9-15.103-4.9c-6.645,0-12.028,3.873-12.028,8.643c0,4.781,5.383,8.645,12.028,8.645
		c4.748,0,11.513-2.012,14.998-4.9h4.751c0.775,21.479,8.459,40.98,20.654,55.836l-3.228,3.598
		c-4.28,0.672-10.395,4.678-13.792,8.457c-4.69,5.236-6.055,12.225-3.025,15.598c3.025,3.373,9.284,1.863,13.983-3.373
		c3.354-3.75,6.863-10.508,7.499-15.299l3.306-3.686c13.292,13.668,30.791,22.313,50.052,23.209v5.008
		c-2.599,3.85-4.386,11.504-4.386,16.859c0,7.412,3.462,13.416,7.745,13.416c4.272,0,7.742-6.004,7.742-13.416
		c0-5.291-1.801-12.84-4.386-16.732v-5.135c19.259-0.896,36.75-9.541,50.043-23.209l3.229,3.598
		c0.599,4.779,4.191,11.6,7.583,15.387c4.693,5.236,10.958,6.746,13.98,3.373c3.02-3.373,1.668-10.357-3.028-15.598
		c-3.356-3.742-9.415-7.652-13.714-8.369l-3.305-3.686c12.199-14.848,19.883-34.357,20.656-55.836h4.638
		c3.451,2.908,10.313,4.9,15.11,4.9c6.648,0,12.031-3.863,12.031-8.645C223.492,119.863,218.109,115.992,211.461,115.992z
		 M112.689,194.85c-34.485,0-62.444-31.193-62.444-69.656c0-38.479,27.958-69.667,62.444-69.667c1.208,0,2.389,0.126,3.578,0.204
		v-0.004c0.045,0,0.095,0.006,0.146,0.006c1.658,0.109,3.304,0.288,4.918,0.541c0.286,0.04,0.567,0.092,0.848,0.144
		c1.529,0.258,3.045,0.551,4.531,0.936c0.297,0.075,0.592,0.178,0.889,0.253c4.592,1.258,8.983,3.074,13.117,5.401
		c0.316,0.167,0.645,0.323,0.958,0.506c1.1,0.646,2.158,1.362,3.226,2.081c0.512,0.344,1.035,0.683,1.543,1.042
		c1.021,0.739,2.016,1.52,3.002,2.327c0.472,0.383,0.942,0.773,1.406,1.175c1.001,0.859,1.979,1.759,2.931,2.689
		c0.146,0.138,0.304,0.265,0.443,0.408l-0.015,0.022c1.672,1.665,3.252,3.42,4.758,5.285l0.018-0.017
		c0.098,0.123,0.18,0.255,0.28,0.376c1.007,1.264,1.971,2.557,2.893,3.89c0.088,0.135,0.18,0.271,0.264,0.396
		c7.941,11.683,12.711,26.208,12.711,42.003C175.134,163.656,147.175,194.85,112.689,194.85z"/>
	<path fill="#163856" d="M98.641,103.979c0.003-0.006,0.014-0.017,0.044-0.058c1.334,0.443,2.408,0.822,2.615,0.919
		c0.623,0.293,0.824,3.419,2.4,3.419c1.566,0,25.583,0.167,26.663,0c1.071-0.16,1.672-2.106,2.061-2.106c0.395,0,1.898,0,1.898,0
		v-1.192c0,0-4.199,0.215-8.977,0.385v-1.44l10.208-1.927c0,0-4.245-4.356-4.805-23.148c-0.84,0.937-3.693,3.618-5.403,5.218V68.482
		c0.972,0.981,3.572-1.162,6.3,2.074c0.225-2.672,0.025-2.396,0.073-4.546c-0.893-3.115-6.174,0.558-6.373-1.989h-0.84v2.541
		l-4.042,6.241l-3.823-3.804c-0.329,1.177-1.448,3.999-3.505,7.842c-0.813-0.303-1.766-0.693-2.911-1.185l-4.073,8.477h2.627
		c-3.569,5.387-8.432,11.599-14.824,17.656c-1.007-0.327-1.689-0.558-1.689-0.558v0.558c0,0,3.587,1.173,6.244,2.072L98.641,103.979
		z M109.22,104.157v1.129c-3.822-0.296-6.854-0.744-7.475-0.943c-0.306-0.1-1.383-0.457-2.702-0.887
		c0.256-0.334,0.621-0.813,1.074-1.42c2.632,0.417,7.711,0.799,9.353,0.914C109.307,103.714,109.22,104.157,109.22,104.157z
		 M118.636,105.532c-0.952,0.015-1.852,0.021-2.665,0.021c-1.987,0-3.998-0.081-5.856-0.207v-1.485c0,0,0.02-0.113,0.066-0.319
		c1.375,0.528,5.993,0.46,8.456,0.385V105.532z M111.312,97.875c0.733-3.735,1.719-8.723,2.638-13.51l3.021,1.063l-2.841,1.488
		C114.131,86.917,112.54,93.08,111.312,97.875z M124.951,105.357c-1.774,0.055-3.605,0.115-5.324,0.155l0.045-1.632
		c0.337-0.005,0.54-0.019,0.54-0.019l0.503,0.922l4.236-0.805V105.357z M124.951,84.423c-0.573,0.534-0.95,0.882-0.95,0.882
		l-3.148,14.93l-0.138-2.646c1.401-8.315,3.778-22.894,4.236-28.742V84.423z M124.513,67.188h0.182
		c-1.73,12.292-3.139,20.99-4.163,26.817l-0.319-6.214h1.057c0,0-1.005-7.839-0.778-9.649c-1.254-0.109-2.064-0.072-2.975-0.155
		L124.513,67.188z M118.636,72.745l0.795,1.213l0.671-0.592l-2.968,4.589c-0.543-0.066-1.132-0.192-1.888-0.405
		c0.315-1.66,0.585-3.172,0.81-4.457l0,0L118.636,72.745z M115.469,72.728c0,0.247-0.33,2.026-0.837,4.638
		c-0.358-0.115-0.753-0.254-1.188-0.414C114.157,75.584,114.838,74.176,115.469,72.728z M111.649,84.133h1.442
		c-0.433,0.608-0.991,1.388-1.646,2.267L111.649,84.133z M113.207,84.572c-0.956,4.755-2.025,10.011-2.816,13.879l1.001-11.385
		C112.1,86.106,112.722,85.25,113.207,84.572z M109.233,84.133h1.627c-1.461,1.583-4.534,4.917-7.635,8.209
		C105.168,89.939,107.234,87.181,109.233,84.133z M95.34,101.05c3.292-0.034,5.571-1.25,5.571-1.25s-0.839,1.052-2.401,1.81
		c0.044,0.115,0.508,0.235,1.22,0.362c-0.45,0.595-0.804,1.058-1.037,1.368c-1.406-0.457-3.021-0.989-4.28-1.402
		C94.643,101.726,94.957,101.422,95.34,101.05z"/>
	<path fill="#163856" d="M114.116,56.827c-33.339,0-60.46,30.263-60.46,67.456c0,37.192,27.121,67.453,60.46,67.453
		c33.339,0,60.46-30.261,60.46-67.453C174.576,87.089,147.455,56.827,114.116,56.827z M114.116,189.852
		c-32.412,0-58.779-29.407-58.779-65.569c0-36.159,26.367-65.576,58.779-65.576c32.416,0,58.783,29.417,58.783,65.576
		C172.899,160.444,146.532,189.852,114.116,189.852z"/>
	<path fill="#163856" d="M79.266,134.846c4.827,0,7.938-3.049,7.938-7.76c0-7.454-6.735-7.758-6.735-13.005
		c0-1.827,1.133-2.907,2.787-2.907c1.583,0,2.184,1.08,2.184,2.24c0,1.104-0.539,2.339-1.347,2.874
		c0.388,0.505,0.869,0.707,1.347,0.707c1.561,0,2.487-1.477,2.487-3.386c0-3.734-3.446-3.997-5.029-3.997
		c-3.571,0-7.135,2.698-7.135,6.216c0,4.976,6.473,6.341,6.473,12.63c0,2.475-0.931,4.782-3.297,4.782
		c-1.406,0-2.968-0.973-2.968-3.215c0-2.303,1.077-3.444,3.506-3.677c-0.242-1.201-1.08-1.7-2.429-1.7
		c-2.306,0-4.405,1.674-4.405,4.816C72.643,134.275,76.87,134.846,79.266,134.846z"/>
	<path fill="#163856" d="M151.177,119.765l1.616-8.488l-4.437,0.667l-3.462,18.125c-0.859,0.811-1.746,1.565-2.503,1.565
		c-1.2,0-1.502-0.502-1.502-1.273c0-0.165-0.033-0.498,2.037-11.061h1.801l0.241-1.333h-1.797c0.563-3.011,1.013-5.287,1.013-5.287
		l-4.426,0.67l-0.904,4.617h-0.987l-0.24,1.333h0.987c-0.109,0.609-0.268,1.436-0.448,2.339c-0.732,0.54-1.356,1.2-2.438,1.2
		c-0.419,0-0.688-0.092-0.866-0.295c-0.064-2.439-0.78-4.917-3.626-4.917c-2.661,0-5.144,1.491-6.587,4.724
		c-0.414,0.271-0.859,0.488-1.456,0.488c-0.421,0-0.691-0.092-0.872-0.295c-0.057-2.439-0.776-4.917-3.621-4.917
		c-4.139,0-7.884,3.542-7.884,11.771c0,0.446,0.026,0.859,0.06,1.252c-0.566,0.728-1.213,1.28-1.841,1.28
		c-0.958,0-1.231-0.598-1.231-1.369c0-0.401,0.064-0.836,0.152-1.235l1.229-6.383c0.028-0.264,0.06-0.5,0.06-0.773
		c0-2.271-1.799-4.204-3.447-4.204c-1.469,0-3.053,1.029-4.374,2.204c-0.658-1.311-1.86-2.204-2.973-2.204
		c-1.288,0-2.663,0.799-3.857,1.771l0.326-1.771h-4.314l-3.173,16.712h4.311l2.576-13.508c0.6-0.468,1.11-0.701,1.831-0.701
		c0.81,0,1.379,0.765,1.379,1.975c0,0.267-0.037,0.569-0.087,0.868l-2.161,11.367h4.343l2.218-11.735
		c0.027-0.233,0.061-0.466,0.061-0.701c0-0.403-0.061-0.776-0.154-1.167c0.577-0.408,1.082-0.607,1.741-0.607
		c0.809,0,1.381,0.765,1.381,1.975c0,0.267-0.032,0.569-0.093,0.868l-1.134,6.015c-0.124,0.639-0.182,1.168-0.182,1.703
		c0,2.511,1.376,3.648,3.712,3.648c1.292,0,2.677-1.322,3.895-2.806c0.534,2.144,1.906,3.007,4.335,3.007
		c2.995,0,6.261-3.311,6.827-10.024c0.637-0.2,1.223-0.487,1.791-0.821c-0.425,1.5-0.67,3.282-0.67,5.364
		c0,3.979,1.378,5.48,4.588,5.48c2.992,0,6.258-3.311,6.83-10.024c1.169-0.367,2.237-0.998,3.108-1.763
		c-0.624,3.115-1.329,6.741-1.329,7.937c0,2.511,1.405,3.648,3.715,3.648c1.284,0,2.873-1.352,4.29-2.813l-0.535,2.813h4.31
		l2.576-13.474c0.601-0.503,1.168-0.736,1.888-0.736c0.931,0,1.349,0.998,1.349,2.076c0,0.264-0.031,0.532-0.06,0.767l-1.139,6.015
		c-0.116,0.57-0.18,1.14-0.18,1.673c0,2.104,0.929,3.679,3.055,3.679c1.021,0,2.282-0.207,3.118-3.074
		c-0.24,0.098-0.567,0.098-0.779,0.098c-0.899,0-1.139-0.433-1.139-1.007c0-0.437,0.151-0.932,0.239-1.368l1.23-6.383
		c0.057-0.233,0.057-0.5,0.057-0.735c0-2.212-1.767-4.242-3.446-4.242C153.784,117.966,152.405,118.765,151.177,119.765z
		 M120.02,125.181c-0.362,3.25-1.38,6.453-3.211,6.453c-1.167,0-2.007-0.533-2.007-2.536c0-2.68,1.2-9.494,4.015-9.494
		c0.841,0,1.169,0.629,1.263,1.732c-0.813,0.334-1.318,1.374-1.318,2.343C118.761,124.48,119.148,125.181,120.02,125.181z
		 M132.552,125.181c-0.357,3.25-1.378,6.453-3.212,6.453c-1.161,0-2.004-0.533-2.004-2.536c0-2.68,1.201-9.494,4.019-9.494
		c0.84,0,1.169,0.629,1.259,1.732c-0.811,0.334-1.318,1.374-1.318,2.343C131.295,124.48,131.686,125.181,132.552,125.181z"/>
	<path fill="#163856" d="M82.897,140.958c-3.571,0-7.135,2.714-7.135,6.225c0,4.971,6.473,6.346,6.473,12.629
		c0,2.472-0.931,4.782-3.297,4.782c-1.406,0-2.968-0.969-2.968-3.208c0-2.302,1.077-3.44,3.506-3.682
		c-0.242-1.197-1.08-1.697-2.429-1.697c-2.306,0-4.405,1.676-4.405,4.806c0,4.811,4.227,5.386,6.623,5.386
		c4.827,0,7.938-3.042,7.938-7.749c0-7.463-6.735-7.762-6.735-13.01c0-1.838,1.133-2.906,2.787-2.906
		c1.583,0,2.184,1.068,2.184,2.236c0,1.105-0.539,2.341-1.347,2.884c0.388,0.499,0.869,0.698,1.347,0.698
		c1.561,0,2.487-1.479,2.487-3.385C87.927,141.234,84.48,140.958,82.897,140.958z"/>
	<path fill="#163856" d="M111.051,144.9c0-1.468-1.076-2.669-2.395-2.669c-1.32,0-2.369,1.201-2.369,2.669
		c0,1.478,1.049,2.638,2.369,2.638C109.975,147.538,111.051,146.378,111.051,144.9z"/>
	<path fill="#163856" d="M127.549,144.9c0-1.468-1.082-2.669-2.402-2.669c-1.315,0-2.366,1.201-2.366,2.669
		c0,1.478,1.051,2.638,2.366,2.638C126.467,147.538,127.549,146.378,127.549,144.9z"/>
	<path fill="#163856" d="M152.431,150.922c-0.448-0.866-1.314-1.574-2.396-1.574c-5.81,0-7.399,8.026-7.399,12.64
		c0,0.2,0.014,0.412,0.036,0.617c-0.31,0.22-0.634,0.382-1.063,0.382c-1.169,0-1.503-0.498-1.503-1.232
		c0-0.334,0.061-0.707,0.15-1.078l1.232-6.374c0.061-0.27,0.061-0.541,0.061-0.811c0-2.235-1.828-4.178-3.448-4.178
		c-1.318,0-2.693,0.809-3.925,1.809l0.357-1.809h-4.313l-2.374,12.493c-0.734,0.651-1.469,1.18-2.097,1.18
		c-1.203,0-1.496-0.536-1.496-1.266c0-0.301,0.057-0.674,0.113-1.045l2.158-11.362h-4.313l-2.154,11.362
		c-0.057,0.305-0.057,0.54-0.091,0.809c-0.837,0.792-1.699,1.502-2.435,1.502c-1.171,0-1.498-0.498-1.498-1.232
		c0-0.27,0.063-0.573,0.153-1.078l3.439-18.042l-4.433,0.666l-3.33,17.376c-0.047,0.27-0.04,0.471-0.069,0.717
		c-0.875,0.831-1.774,1.594-2.542,1.594c-1.198,0-1.499-0.536-1.499-1.266c0-0.301,0.06-0.674,0.124-1.045l2.156-11.362h-4.311
		l-2.163,11.362c-0.101,0.56-0.142,1.034-0.155,1.485c-0.583,0.463-1.152,0.825-1.657,0.825c-1.195,0-1.491-0.536-1.491-1.266
		c0-0.301,0.056-0.674,0.116-1.045l2.159-11.362h-4.317l-0.178,0.874c-0.544-0.505-1.291-0.84-2.007-0.84
		c-5.993,0-7.852,6.891-7.852,12.64c0,1.969,0.841,4.241,3.713,4.241c1.831,0,3.182-1.366,4.078-2.736
		c0.388,1.737,1.708,2.538,3.655,2.538c1.183,0,2.626-1.136,3.948-2.458c0.415,1.654,1.669,2.458,3.56,2.458
		c1.386,0,3.142-1.576,4.63-3.17c0.186,2.14,1.496,3.17,3.643,3.17c1.364,0,3.085-1.528,4.562-3.093
		c0.219,2.084,1.54,3.093,3.651,3.093c1.16,0,2.579-1.092,3.883-2.378l-0.456,2.378h4.311l2.551-13.509
		c0.628-0.46,1.167-0.696,1.891-0.696c0.806,0,1.378,0.771,1.378,1.972c0,0.264-0.034,0.575-0.094,0.873l-1.141,6.006
		c-0.116,0.644-0.175,1.175-0.175,1.713c0,2.506,1.375,3.642,3.716,3.642c1.211,0,2.406-0.976,3.478-2.129
		c0.445,1.284,1.441,2.327,3.39,2.327c1.38,0,2.553-0.605,3.446-1.4l-0.356,1.81c-2.784,0.595-5.007,1.1-5.007,4.145
		c0,2.163,1.714,3.611,3.54,3.611c1.98,0,4.554-0.908,5.452-5.69l3.653-19.39h-4.341L152.431,150.922z M96.061,160.676
		c-0.092,0.408-0.151,0.775-0.185,1.114c-0.566,0.938-1.224,1.663-1.914,1.663c-0.744,0-1.737-0.368-1.737-2.369
		c0-4.547,1.799-9.855,4.043-9.855c0.422,0,0.991,0.126,1.469,0.597L96.061,160.676z M149.046,168.81
		c-0.386,1.973-1.135,2.607-1.766,2.607c-0.663,0-1.197-0.635-1.197-1.108c0-1.8,1.29-2.236,3.175-2.61L149.046,168.81z
		 M150.244,162.358c-0.57,0.628-1.172,1.095-1.734,1.095c-1.318,0-2.189-0.501-2.189-2.102c0-2.878,1.139-10.123,4.046-10.123
		c0.515,0,1.257,0.434,1.738,1.43L150.244,162.358z"/>
</g>
</svg>
