<?xml version="1.0" encoding="utf-8"?>
<!-- Generator: Adobe Illustrator 16.0.0, SVG Export Plug-In . SVG Version: 6.00 Build 0)  -->
<!DOCTYPE svg PUBLIC "-//W3C//DTD SVG 1.1//EN" "http://www.w3.org/Graphics/SVG/1.1/DTD/svg11.dtd" [
	<!ENTITY ns_flows "http://ns.adobe.com/Flows/1.0/">
	<!ENTITY ns_extend "http://ns.adobe.com/Extensibility/1.0/">
	<!ENTITY ns_ai "http://ns.adobe.com/AdobeIllustrator/10.0/">
	<!ENTITY ns_graphs "http://ns.adobe.com/Graphs/1.0/">
]>
<svg version="1.1" id="Layer_1" xmlns:x="&ns_extend;" xmlns:i="&ns_ai;" xmlns:graph="&ns_graphs;"
	 xmlns="http://www.w3.org/2000/svg" xmlns:xlink="http://www.w3.org/1999/xlink" xmlns:a="http://ns.adobe.com/AdobeSVGViewerExtensions/3.0/"
	 x="0px" y="0px" width="225px" height="250px" viewBox="0 0 225 250" enable-background="new 0 0 225 250" xml:space="preserve">
<g>
	<g>
		<path fill="#FFFFFF" d="M161.475,114.485c0.774,5.589-1.6,11.073-5.301,12.242l-134.678,42.58c-3.7,1.17-7.331-2.418-8.106-8.007
			L2.562,83.136c-0.774-5.593,1.6-11.073,5.301-12.242L142.54,28.315c3.702-1.169,7.33,2.413,8.106,8.005L161.475,114.485z"/>
		<path fill="#42A9C1" d="M150.646,36.32L150.646,36.32c-0.776-5.592-4.404-9.174-8.106-8.005L7.863,70.894
			c-3.702,1.169-6.076,6.649-5.301,12.242l0.734,5.302L151.38,41.624"/>
		<g opacity="0.5">
			<g>
				<polygon fill="#131312" points="26.116,67.388 25.815,65.218 26.292,65.066 26.593,67.234 				"/>
			</g>
			<g>
				<path fill="#131312" d="M38.527,156.98l-0.621-4.479l0.478-0.152l0.621,4.48L38.527,156.98z M37.286,148.022l-0.621-4.48
					l0.478-0.152l0.62,4.479L37.286,148.022z M36.046,139.064l-0.621-4.48l0.478-0.153l0.621,4.479L36.046,139.064z M34.804,130.104
					l-0.622-4.479l0.478-0.153l0.623,4.48L34.804,130.104z M33.562,121.144l-0.621-4.479l0.479-0.153l0.62,4.48L33.562,121.144z
					 M32.321,112.185l-0.621-4.48l0.478-0.153l0.621,4.48L32.321,112.185z M31.081,103.226l-0.622-4.481l0.478-0.152l0.62,4.48
					L31.081,103.226z M29.839,94.266l-0.621-4.48l0.478-0.153l0.622,4.48L29.839,94.266z M28.597,85.306l-0.621-4.48l0.479-0.151
					l0.621,4.479L28.597,85.306z M27.356,76.347l-0.62-4.48l0.478-0.152l0.621,4.479L27.356,76.347z"/>
			</g>
			<g>
				<polygon fill="#131312" points="39.448,163.632 39.147,161.462 39.625,161.308 39.926,163.479 				"/>
			</g>
		</g>
		<g>
			<g>
				<polygon fill="#131312" points="39.505,149.017 39.422,148.413 47.241,145.943 47.324,146.547 				"/>
			</g>
			<g>
				<polygon fill="#131312" points="39.085,145.974 39.043,145.671 46.861,143.199 46.904,143.503 				"/>
			</g>
			<g>
				<polygon fill="#131312" points="38.705,143.232 38.621,142.629 46.439,140.156 46.522,140.761 				"/>
			</g>
			<g>
				<polygon fill="#131312" points="38.305,140.343 38.221,139.738 46.04,137.262 46.122,137.865 				"/>
			</g>
			<g>
				<polygon fill="#131312" points="37.903,137.449 37.82,136.844 45.638,134.373 45.722,134.977 				"/>
			</g>
			<g>
				<polygon fill="#131312" points="37.544,134.856 37.377,133.647 45.195,131.18 45.362,132.386 				"/>
			</g>
			<g>
				<polygon fill="#131312" points="37.082,131.512 37.039,131.207 44.856,128.738 44.9,129.039 				"/>
			</g>
			<g>
				<polygon fill="#131312" points="36.701,128.769 36.617,128.164 44.436,125.693 44.52,126.298 				"/>
			</g>
			<g>
				<polygon fill="#131312" points="36.341,126.182 36.175,124.97 43.994,122.498 44.16,123.706 				"/>
			</g>
			<g>
				<polygon fill="#131312" points="35.899,122.983 35.816,122.379 43.635,119.907 43.718,120.512 				"/>
			</g>
			<g>
				<polygon fill="#131312" points="35.478,119.94 35.435,119.638 43.255,117.167 43.297,117.469 				"/>
			</g>
			<g>
				<polygon fill="#131312" points="35.098,117.2 35.015,116.595 42.833,114.123 42.916,114.726 				"/>
			</g>
			<g>
				<polygon fill="#131312" points="34.696,114.306 34.613,113.7 42.433,111.23 42.516,111.834 				"/>
			</g>
			<g>
				<polygon fill="#131312" points="34.339,111.716 34.171,110.506 41.989,108.036 42.156,109.245 				"/>
			</g>
			<g>
				<polygon fill="#131312" points="33.896,108.521 33.813,107.916 41.631,105.444 41.714,106.048 				"/>
			</g>
			<g>
				<polygon fill="#131312" points="33.494,105.627 33.411,105.023 41.23,102.551 41.314,103.156 				"/>
			</g>
			<g>
				<polygon fill="#131312" points="33.074,102.585 33.031,102.283 40.849,99.81 40.892,100.113 				"/>
			</g>
			<g>
				<polygon fill="#131312" points="32.694,99.844 32.61,99.239 40.429,96.766 40.512,97.371 				"/>
			</g>
			<g>
				<polygon fill="#131312" points="32.293,96.951 32.208,96.346 40.027,93.874 40.111,94.479 				"/>
			</g>
			<g>
				<polygon fill="#131312" points="31.935,94.359 31.768,93.15 39.585,90.677 39.752,91.887 				"/>
			</g>
			<g>
				<polygon fill="#131312" points="31.49,91.165 31.407,90.56 39.227,88.088 39.31,88.694 				"/>
			</g>
		</g>
		<g>
			<g>
				<polygon fill="#70706F" points="10.327,98.295 10.125,96.849 23.21,92.713 23.412,94.158 				"/>
			</g>
			<g>
				<polygon fill="#70706F" points="52.935,90.864 52.733,89.418 141.776,61.268 141.977,62.715 				"/>
			</g>
			<g>
				<polygon fill="#70706F" points="54.939,105.327 54.737,103.88 143.778,75.73 143.981,77.177 				"/>
			</g>
			<g>
				<polygon fill="#70706F" points="56.943,119.791 56.742,118.344 145.783,90.194 145.986,91.639 				"/>
			</g>
			<g>
				<polygon fill="#70706F" points="58.947,134.253 58.746,132.809 147.788,104.657 147.989,106.102 				"/>
			</g>
			<g>
				<polygon fill="#70706F" points="13.532,121.436 13.331,119.99 26.416,115.854 26.618,117.301 				"/>
			</g>
			<g>
				<polygon fill="#70706F" points="16.739,144.578 16.538,143.132 29.623,138.997 29.823,140.441 				"/>
			</g>
		</g>
	</g>
	<g>
		<path fill="#FFFFFF" d="M212.791,195.376c-0.66,5.622-4.213,9.374-7.938,8.377L69.372,167.465
			c-3.723-1.001-6.208-6.371-5.547-11.993l9.23-78.632c0.661-5.626,4.217-9.375,7.937-8.377l135.484,36.291
			c3.726,0.999,6.207,6.366,5.548,11.991L212.791,195.376z"/>
		<path fill="#42A9C1" d="M222.022,116.744L222.022,116.744c0.659-5.625-1.822-10.992-5.548-11.991L80.991,68.462
			c-3.72-0.998-7.276,2.751-7.937,8.377l-0.626,5.333l148.968,39.904"/>
		<g opacity="0.5">
			<g>
				<polygon fill="#131312" points="99.277,75.61 98.796,75.482 99.052,73.301 99.533,73.429 				"/>
			</g>
			<g>
				<path fill="#131312" d="M88.698,165.739l-0.481-0.128l0.528-4.507l0.481,0.128L88.698,165.739z M89.756,156.727l-0.481-0.128
					l0.528-4.506l0.48,0.128L89.756,156.727z M90.813,147.714l-0.481-0.131l0.529-4.505l0.48,0.129L90.813,147.714z M91.872,138.702
					l-0.481-0.13l0.529-4.507l0.479,0.132L91.872,138.702z M92.93,129.688l-0.48-0.129l0.528-4.504l0.481,0.126L92.93,129.688z
					 M93.988,120.675l-0.48-0.128l0.527-4.506l0.481,0.128L93.988,120.675z M95.046,111.662l-0.48-0.128l0.527-4.506l0.481,0.129
					L95.046,111.662z M96.104,102.65l-0.482-0.129l0.529-4.506l0.48,0.13L96.104,102.65z M97.162,93.637l-0.481-0.129l0.528-4.506
					l0.48,0.129L97.162,93.637z M98.22,84.625l-0.481-0.129l0.528-4.505l0.481,0.128L98.22,84.625z"/>
			</g>
			<g>
				<polygon fill="#131312" points="87.912,172.428 87.431,172.299 87.687,170.117 88.168,170.248 				"/>
			</g>
		</g>
		<g>
			<g>
				<polygon fill="#131312" points="98.954,160.879 91.089,158.775 91.161,158.165 99.026,160.27 				"/>
			</g>
			<g>
				<polygon fill="#131312" points="99.314,157.816 91.449,155.707 91.483,155.405 99.349,157.513 				"/>
			</g>
			<g>
				<polygon fill="#131312" points="99.637,155.058 91.773,152.951 91.845,152.345 99.708,154.451 				"/>
			</g>
			<g>
				<polygon fill="#131312" points="99.979,152.149 92.113,150.044 92.185,149.433 100.051,151.542 				"/>
			</g>
			<g>
				<polygon fill="#131312" points="100.32,149.239 92.455,147.136 92.527,146.525 100.393,148.63 				"/>
			</g>
			<g>
				<polygon fill="#131312" points="100.626,146.635 92.76,144.525 92.904,143.309 100.769,145.418 				"/>
			</g>
			<g>
				<polygon fill="#131312" points="101.021,143.27 93.157,141.157 93.192,140.855 101.056,142.964 				"/>
			</g>
			<g>
				<polygon fill="#131312" points="101.346,140.511 93.48,138.402 93.552,137.794 101.417,139.903 				"/>
			</g>
			<g>
				<polygon fill="#131312" points="101.651,137.904 93.785,135.797 93.929,134.58 101.794,136.686 				"/>
			</g>
			<g>
				<polygon fill="#131312" points="102.028,134.69 94.164,132.583 94.236,131.973 102.1,134.08 				"/>
			</g>
			<g>
				<polygon fill="#131312" points="102.389,131.629 94.524,129.521 94.558,129.216 102.423,131.321 				"/>
			</g>
			<g>
				<polygon fill="#131312" points="102.711,128.87 94.845,126.763 94.917,126.153 102.783,128.261 				"/>
			</g>
			<g>
				<polygon fill="#131312" points="103.053,125.958 95.188,123.854 95.259,123.245 103.125,125.35 				"/>
			</g>
			<g>
				<polygon fill="#131312" points="103.357,123.354 95.494,121.247 95.638,120.028 103.502,122.137 				"/>
			</g>
			<g>
				<polygon fill="#131312" points="103.736,120.141 95.871,118.032 95.943,117.423 103.808,119.532 				"/>
			</g>
			<g>
				<polygon fill="#131312" points="104.078,117.229 96.212,115.122 96.284,114.514 104.149,116.62 				"/>
			</g>
			<g>
				<polygon fill="#131312" points="104.438,114.167 96.572,112.062 96.606,111.756 104.472,113.863 				"/>
			</g>
			<g>
				<polygon fill="#131312" points="104.762,111.41 96.896,109.302 96.967,108.694 104.833,110.802 				"/>
			</g>
			<g>
				<polygon fill="#131312" points="105.103,108.5 97.236,106.394 97.308,105.784 105.174,107.891 				"/>
			</g>
			<g>
				<polygon fill="#131312" points="105.408,105.894 97.542,103.788 97.686,102.57 105.552,104.676 				"/>
			</g>
			<g>
				<polygon fill="#131312" points="105.784,102.68 97.92,100.574 97.993,99.964 105.856,102.072 				"/>
			</g>
		</g>
		<g>
			<g>
				<polygon fill="#70706F" points="89.684,98.805 76.521,95.278 76.691,93.824 89.854,97.349 				"/>
			</g>
			<g>
				<polygon fill="#70706F" points="207.468,136.357 117.895,112.364 118.065,110.909 207.639,134.902 				"/>
			</g>
			<g>
				<polygon fill="#70706F" points="205.761,150.907 116.186,126.913 116.356,125.459 205.932,149.453 				"/>
			</g>
			<g>
				<polygon fill="#70706F" points="204.052,165.458 114.479,141.462 114.649,140.007 204.223,164 				"/>
			</g>
			<g>
				<polygon fill="#70706F" points="202.345,180.006 112.771,156.012 112.941,154.557 202.516,178.552 				"/>
			</g>
			<g>
				<polygon fill="#70706F" points="86.95,122.083 73.789,118.558 73.958,117.102 87.121,120.629 				"/>
			</g>
			<g>
				<polygon fill="#70706F" points="84.219,145.366 71.055,141.838 71.224,140.382 84.389,143.907 				"/>
			</g>
		</g>
	</g>
</g>
</svg>
