<?xml version="1.0" encoding="utf-8"?>
<!-- Generator: Adobe Illustrator 16.0.0, SVG Export Plug-In . SVG Version: 6.00 Build 0)  -->
<!DOCTYPE svg PUBLIC "-//W3C//DTD SVG 1.1//EN" "http://www.w3.org/Graphics/SVG/1.1/DTD/svg11.dtd" [
	<!ENTITY ns_flows "http://ns.adobe.com/Flows/1.0/">
	<!ENTITY ns_extend "http://ns.adobe.com/Extensibility/1.0/">
	<!ENTITY ns_ai "http://ns.adobe.com/AdobeIllustrator/10.0/">
	<!ENTITY ns_graphs "http://ns.adobe.com/Graphs/1.0/">
]>
<svg version="1.1" id="Layer_1" xmlns:x="&ns_extend;" xmlns:i="&ns_ai;" xmlns:graph="&ns_graphs;"
	 xmlns="http://www.w3.org/2000/svg" xmlns:xlink="http://www.w3.org/1999/xlink" xmlns:a="http://ns.adobe.com/AdobeSVGViewerExtensions/3.0/"
	 x="0px" y="0px" width="225px" height="250px" viewBox="0 0 225 250" enable-background="new 0 0 225 250" xml:space="preserve">
<g>
	<g>
		<polygon fill="#EAAE48" points="170.951,31.713 112.565,3.62 112.565,220.281 170.951,248.384 170.955,248.38 170.955,31.713 		
			"/>
		<polygon fill="#DB983F" points="221.263,3.453 170.955,31.713 170.955,248.38 221.263,220.128 		"/>
		<polygon fill="#EAAE48" points="3.212,3.453 3.212,220.128 61.058,247.968 61.058,31.299 		"/>
		<polygon fill="#DB983F" points="112.24,3.453 61.918,31.713 61.058,31.299 61.058,247.968 61.918,248.384 112.24,220.128 
			112.565,220.281 112.565,3.62 		"/>
	</g>
	<g>
		<g>
			<path fill="#F3F0EF" d="M80.148,99.701c-0.355-3.807,1.723-6.287,0.155-10.099c-1.054-2.539-2.113-4.562-1.988-7.378
				c0.299-6.57,1.732-13.009,1.655-19.689c-0.02-1.949-0.542-3.092-1.395-3.649c-4.146-2.731-16.199,8.67-16.648,8.17
				c-0.282-0.309-0.582-0.597-0.869-0.896v38.749c1.812,0.614,3.686,1.481,4.104,2.153c1.919,3.166-1.815,10.468,2.094,11.375
				c6.549,1.508,13.854-10.694,13.747-16.36C81.002,101.045,80.253,100.66,80.148,99.701z"/>
			<path fill="#FFFFFF" d="M31.698,63.163c-2.506,2.479-7.455,5.409-6.566,9.529c0.872,4.147,2.375,4.063,5.481,2.163
				c2.941-1.793,6.371-2.998,9.651-0.678c3.538,2.488,0.804,6.426-1.139,9.094c-2.78,3.857-4.578,7.065-5.898,11.521
				c-1.119,3.754-1.691,8.012,0.674,11.451c2.417,3.519,7.511,3.596,9.36,6.752c1.934,3.324,2.224,7.904,5.948,9.799
				c2.522,1.286,5.07-0.126,7.975,1.213c1.457,0.664,2.707,1.522,3.876,2.442v-1.826c-1.646-3.848-2.457-7.83-4.053-11.629
				c-1.008-2.391-4.392-8.672,0.755-8.839c0.659-0.014,1.958,0.304,3.298,0.753V66.16C53.333,58.306,40.454,54.492,31.698,63.163z"
				/>
			<path fill="#FFFFFF" d="M57.2,139.346c-3.684,2.549-11.135,7.318-10.188,13.298c0.739,4.674,5.556,1.812,6.855,5.429
				c1.039,2.872-1.845,6.737-1.958,9.433c4.252,1.077,7.375,3.906,9.149,7.739v-38.847C60.213,137.617,58.821,138.236,57.2,139.346z
				"/>
			<path fill="#F3F0EF" d="M91.516,139.04c-2.337-3.44-5.979-6.368-9.779-7.251c-3.735-0.867-7.774-0.294-11.315-2.206
				c-1.658-0.907-3.059-2.164-4.767-3.02c-1.166-0.583-2.978-1.087-4.596-1.749v3.491c0.539,1.593,0.884,3.26,0.85,4.899
				c-0.021,1.467-0.337,2.442-0.85,3.192v38.847c1.104,2.402,1.695,5.188,1.68,8.197c-0.047,11.223,3.291,22.869,11.207,29.398
				c0.522-2.264,1.125-4.658,1.389-7.104c1.035-9.551-0.669-17.933,5.814-25.74c2.806-3.368,2.246-4.691,2.029-8.927
				c-0.112-2.149,0.265-7.285,1.824-8.441c1.949,1.042,5.894,1.619,7.631-0.095c1.146-1.154,2.475-7.657,2.719-9.422
				C96.115,147.613,94.377,143.226,91.516,139.04z"/>
		</g>
		<g>
			<path fill="#F3F0EF" d="M108.788,106.642c-9.997,5.789-12.661,22.797-7.359,34.33c2.445,5.332,7.054,3.776,11.136,1.475v-38.724
				C111.46,104.76,110.295,105.766,108.788,106.642z"/>
			<path fill="#FFFFFF" d="M141.76,138.867c9.393,1.108,5.683-9.084,8.502-12.627c4.549-5.693,7.856,8.408,8.119,11.066
				c0.716,7.292-0.645,14.522-0.743,21.79c-0.035,3.039-0.794,15.567,4.301,13.774c3.962-1.402,2.013-11.104,2.558-14.514
				c0.488-3.146,3.455-15.111,5.859-16.542c0.207-0.122,0.402-0.174,0.6-0.247v-62.95c-2.538,2.883-5.519,5.32-7.824,3.345
				c-1.948-1.693-1.501-7.687-2.968-10.168c-1.93-3.297-3.185-3.887-6.776-4.497c0.381-0.731,0.467-2.568,0.937-3.407
				c-1.099,0.425-3.048,0.015-4.145,0.438c-0.176-5.14,6.836-5.345,8.45-8.855c-3.07-0.287-5.888-0.385-8.569,1.559
				c-2.148,1.586-2.652,5.235-4.68,6.332c-5.138,2.819-17.458-6.752-23.117-8.145c-4.07-1-7.185-0.542-9.698,1.218v29.216
				c1.324,2.722,1.726,6.662,2.624,8.831c0.372,0.215,0.769,0.215,1.142,0c1.05-3.336,0.473-7.168,0.74-10.559
				c5.376-1.638,8.329,7.276,9.565,11.691c1.036,3.68,3.127,4.908-2.273,6.336c-2.92,0.775-5.032,0.036-6.993-2.603
				c-1.891,1.436-3.287,2.948-4.804,4.372v38.724c1.972-1.114,3.842-2.39,5.266-3.18c-0.18,4.444,3.317,8.9,4.525,13.057
				c3.514,11.995,0.979,23.449,0.904,35.767c-0.012,2.496,0.535,11.953,3.355,12.514c3.227,0.655,6.026-10.544,6.74-13.146
				c2.955-10.754,2.983-21.865,8.306-31.822c2.051-3.873,6.139-17.109,6.976-22.265"/>
			<path fill="#E7E6E6" d="M202.079,83.655c0.619-3.36-0.023-7.293-3.572-7.265c-0.252-4.167-2.722-13.893-6.666-16.072
				c-3.698-2.066-3.88,0.887-6.882,4.151c-3.317,3.605-7.455,5.946-10.256,9.457c-0.953,1.203-2.278,3.02-3.748,4.693v62.95
				c4.894-1.822,7.756,10.472,13.988,10.204c1.552-6.185,0.172-9.145,4.363-13.636c3.103-3.309,7.855-5.442,9.687-10.395
				c1.42-3.817,1.897-11.583,0.901-15.549c-1.874-7.554-8.263-4.524-14.251-6.266c-0.271-3.872,3.321-5.727,3.46-9.754
				c0.078-2.013-2.754-2.025-2.456-4.565c0.186-1.588,2.302-4.129,3.213-5.447C193.028,81.488,197.491,78.619,202.079,83.655z"/>
			<path fill="#F3F0EF" d="M106.509,65.546c-2.162-0.47-4.717-1.267-6.406,0.685c1.28,1.9,3.176,2.801,5.339,3.131
				c0.164,0.875,0.182,1.925,0,2.795c-1.805,0.445-6.373,3.756-7.467,4.913c-2.375,2.511-2.716,3.516-3.195,7.259
				c-0.198,1.923-0.369,4.299-0.265,6.647c0.219,4.385,1.446,8.642,5.152,9.607c2.404,0.61,5.104-0.55,6.567-3.436
				c2.061-4.085-3.576-14.938,2.781-14.419c1.698,0.137,2.771,1.323,3.551,2.927V56.438
				C110.044,58.209,108.136,61.295,106.509,65.546z"/>
		</g>
		<path fill="#E7E6E6" d="M174.288,192.255c-0.736-11.056,6.388-23.953,15.623-27.512c-1.353,2.26-4.271,9.224,0.89,7.492
			c1.224-0.404,4.644-6.443,5.898-7.656c-1.51,7.245-0.263,11.534,0.666,18.645c0.267,1.961,1.541,7.705,0.408,9.516
			c-1.832,2.918-4.234,1.998-4.82-1.563c-6.588-1.779-9.332,10.384-15.99,8.915c-5.507-1.216-1.067-19.336,1.077-24.12"/>
	</g>
</g>
</svg>
